<?xml version="1.0" encoding="utf-8"?>
<!-- Generator: Adobe Illustrator 16.0.0, SVG Export Plug-In . SVG Version: 6.00 Build 0)  -->
<!DOCTYPE svg PUBLIC "-//W3C//DTD SVG 1.1//EN" "http://www.w3.org/Graphics/SVG/1.1/DTD/svg11.dtd">
<svg version="1.1"
	 id="svg19655" inkscape:output_extension="org.inkscape.output.svg.inkscape" sodipodi:docname="dialog-information.svg" sodipodi:docbase="/home/garrett/Source/tango-icon-theme/scalable/status" inkscape:version="0.46" sodipodi:version="0.32" xmlns:dc="http://purl.org/dc/elements/1.1/" xmlns:cc="http://creativecommons.org/ns#" xmlns:rdf="http://www.w3.org/1999/02/22-rdf-syntax-ns#" xmlns:svg="http://www.w3.org/2000/svg" xmlns:sodipodi="http://sodipodi.sourceforge.net/DTD/sodipodi-0.dtd" xmlns:inkscape="http://www.inkscape.org/namespaces/inkscape" inkscape:export-ydpi="392.72742" inkscape:export-xdpi="392.72742" inkscape:export-filename="/home/jimmac/Desktop/poing.png"
	 xmlns="http://www.w3.org/2000/svg" xmlns:xlink="http://www.w3.org/1999/xlink" x="0px" y="0px" width="48px" height="48px"
	 viewBox="0 0 48 48" enable-background="new 0 0 48 48" xml:space="preserve">
<path fill="#FFA500" stroke="#FFA500" stroke-width="0.5" stroke-miterlimit="10" d="M15.985,28.381l3.86,7.648
	c0.089,0.18,0.278,0.293,0.477,0.293h8.32c0.2,0,0.388-0.113,0.478-0.293l3.839-7.619c3.363-2.629,5.291-6.572,5.291-10.821
	c0-7.581-6.167-13.748-13.748-13.748c-7.58,0-13.747,6.167-13.747,13.748C10.756,21.823,12.662,25.756,15.985,28.381z M24.503,4.91
	c6.992,0,12.68,5.688,12.68,12.68c0,3.96-1.811,7.624-4.972,10.051c-0.064,0.051-0.117,0.115-0.148,0.182l-3.749,7.434h-7.663
	l-3.766-7.463c-0.036-0.07-0.086-0.133-0.15-0.18c-3.122-2.424-4.911-6.077-4.911-10.024C11.824,10.598,17.512,4.91,24.503,4.91z"/>
<path fill="#FFA500" stroke="#FFA500" stroke-width="0.5" stroke-miterlimit="10" d="M20.85,39.439
	c-0.294,0-0.534,0.238-0.534,0.533c0,2.309,1.878,4.186,4.187,4.186c2.308,0,4.186-1.877,4.186-4.186
	c0-0.293-0.239-0.533-0.534-0.533H20.85z M24.503,43.092c-1.515,0-2.815-1.104-3.073-2.584h6.145
	C27.318,41.988,26.019,43.092,24.503,43.092z"/>
<path fill="#FFA500" stroke="#FFA500" stroke-width="0.5" stroke-miterlimit="10" d="M29.409,37.916
	c0-0.295-0.239-0.535-0.534-0.535h-8.743c-0.295,0-0.535,0.24-0.535,0.535s0.239,0.533,0.535,0.533h8.743
	C29.17,38.449,29.409,38.211,29.409,37.916z"/>
</svg>
