<?xml version="1.0" encoding="utf-8"?>
<!-- Generator: Adobe Illustrator 16.0.0, SVG Export Plug-In . SVG Version: 6.00 Build 0)  -->
<!DOCTYPE svg PUBLIC "-//W3C//DTD SVG 1.1//EN" "http://www.w3.org/Graphics/SVG/1.1/DTD/svg11.dtd">
<svg version="1.1"
	 id="svg5816" inkscape:output_extension="org.inkscape.output.svg.inkscape" sodipodi:docname="mail-message-new.svg" inkscape:version="0.48.1 r9760" sodipodi:version="0.32" xmlns:dc="http://purl.org/dc/elements/1.1/" xmlns:cc="http://creativecommons.org/ns#" xmlns:rdf="http://www.w3.org/1999/02/22-rdf-syntax-ns#" xmlns:svg="http://www.w3.org/2000/svg" xmlns:sodipodi="http://sodipodi.sourceforge.net/DTD/sodipodi-0.dtd" xmlns:inkscape="http://www.inkscape.org/namespaces/inkscape"
	 xmlns="http://www.w3.org/2000/svg" xmlns:xlink="http://www.w3.org/1999/xlink" x="0px" y="0px" width="48px" height="48px"
	 viewBox="0 0 48 48" enable-background="new 0 0 48 48" xml:space="preserve">
<g>
	<path fill="none" d="M5.934,32.374c0-0.256,0.102-0.481,0.25-0.668V28.89H4.157c-0.485,0-0.525,0.189-0.525,0.384v11.293
		c0,0.331,0.211,0.687,0.525,0.687h2.028v-8.211C6.036,32.855,5.934,32.63,5.934,32.374z"/>
	<path fill="none" d="M9.555,36.699c-0.381,0-0.411,0.502-0.411,0.656v1.511l2.438-2.167H9.555z"/>
	<path fill="none" d="M7.725,24.68c0-1.096,0.718-1.804,1.83-1.804h4.061l-5.966-5.299v9.894h0.076V24.68z"/>
	<path fill="none" d="M19.01,36.699h-5.228l-4.638,4.123v0.27H19.67v-3.736C19.67,37.03,19.337,36.699,19.01,36.699z"/>
	<path fill="none" d="M25.643,40.566V29.273c0-0.213-0.549-0.384-1.004-0.384h-2.071l-7.19,6.392h3.633
		c1.107,0,2.079,0.97,2.079,2.074v3.736h4.065C25.418,40.945,25.643,40.729,25.643,40.566z"/>
	<path fill="none" d="M27.063,29.273v11.293c0,0.182-0.044,0.355-0.105,0.525h15.377L25.588,26.205l-1.424,1.266h0.475
		C25.81,27.471,27.063,28.195,27.063,29.273z"/>
	<path fill="none" d="M21.089,24.68v2.791h0.872l3.627-3.224l4.075,3.623L43.03,16.057L25.551,5.408L8.142,16.057l7.678,6.819h3.19
		C20.215,22.876,21.089,23.635,21.089,24.68z"/>
	<path fill="none" d="M9.144,44.127c0,0.333,0.127,0.802,0.411,0.802h9.455c0.296,0,0.66-0.442,0.66-0.802v-1.57H9.144V44.127z"/>
	<polygon fill="none" points="43.526,40.195 43.526,17.571 30.765,28.85 	"/>
	<path fill="none" d="M8.119,32.374c0,0.365-0.192,0.674-0.469,0.872v6.949l0.076-0.067v-2.772c0-1.183,0.787-2.074,1.83-2.074
		h3.622l7.189-6.392H7.649v2.612C7.926,31.7,8.119,32.009,8.119,32.374z M9.86,31.282c0.602,0,1.092,0.49,1.092,1.092
		s-0.49,1.092-1.092,1.092c-0.603,0-1.093-0.49-1.093-1.092S9.257,31.282,9.86,31.282z"/>
	<path fill="none" d="M19.67,24.68c0-0.347-0.461-0.385-0.66-0.385h-1.593l2.253,2.001V24.68z"/>
	<path fill="none" d="M9.555,24.295c-0.357,0-0.411,0.086-0.411,0.385v2.791h9.645l-3.576-3.176H9.555z"/>
	<path fill="#3498DB" d="M44.991,15.538L25.55,3.694L6.185,15.54v11.931h1.465v-9.894l5.966,5.299h2.204l-7.678-6.819L25.551,5.408
		L43.03,16.057L29.663,27.869l-4.075-3.623l-3.627,3.224h2.203l1.424-1.266l16.746,14.887H26.957
		c-0.249,0.684-0.937,1.239-1.662,1.465h19.696V15.538z M43.526,40.195L30.765,28.85l12.762-11.279V40.195z"/>
	<path fill="#3498DB" d="M21.089,41.253h3.549c0.155,0,0.344-0.066,0.516-0.161h-4.065V41.253z"/>
	<polygon fill="#3498DB" points="9.144,41.092 9.144,40.822 8.841,41.092 	"/>
	<path fill="#3498DB" d="M19.01,24.295c0.199,0,0.66,0.038,0.66,0.385v1.616l1.807,1.604l0.483-0.43h-0.872V24.68
		c0-1.045-0.875-1.804-2.079-1.804h-3.19l1.598,1.419H19.01z"/>
	<polygon fill="#3498DB" points="17.417,24.295 15.82,22.876 13.616,22.876 15.213,24.295 	"/>
	<polygon fill="#3498DB" points="8.841,41.092 9.144,40.822 9.144,38.866 7.725,40.128 7.725,41.253 6.185,41.253 6.185,42.557 
		9.144,42.557 9.144,41.092 	"/>
	<polygon fill="#3498DB" points="11.582,36.699 13.782,36.699 15.377,35.281 13.177,35.281 	"/>
	<g>
		<path fill="#3498DB" d="M7.725,37.355v2.772l1.419-1.262v-1.511c0-0.154,0.03-0.656,0.411-0.656h2.027l1.595-1.418H9.555
			C8.512,35.281,7.725,36.173,7.725,37.355z"/>
		<path fill="#3498DB" d="M24.639,27.471h-0.475h-2.203l-0.483,0.43l-1.807-1.604v1.175h-0.882H9.144V24.68
			c0-0.298,0.054-0.385,0.411-0.385h5.658l-1.597-1.419H9.555c-1.112,0-1.83,0.708-1.83,1.804v2.791H7.649H6.185H4.157
			c-1.163,0-1.944,0.725-1.944,1.803v11.293c0,1.161,0.872,2.105,1.944,2.105h3.568v1.455c0,1.092,0.685,2.221,1.83,2.221h9.455
			c1.069,0,2.079-1.079,2.079-2.221v-1.455h3.549c0.214,0,0.437-0.047,0.656-0.115c0.726-0.226,1.413-0.781,1.662-1.465
			c0.062-0.17,0.105-0.344,0.105-0.525V29.273C27.063,28.195,25.81,27.471,24.639,27.471z M24.639,41.253h-3.549v-0.161v-3.736
			c0-1.104-0.972-2.074-2.079-2.074h-3.633l-1.595,1.418h5.228c0.327,0,0.66,0.331,0.66,0.656v3.736v1.465v1.57
			c0,0.359-0.364,0.802-0.66,0.802H9.555c-0.284,0-0.411-0.469-0.411-0.802v-1.57H6.185v-1.304H4.157
			c-0.314,0-0.525-0.355-0.525-0.687V29.273c0-0.194,0.041-0.384,0.525-0.384h2.028h1.465h12.717h2.202h2.071
			c0.455,0,1.004,0.171,1.004,0.384v11.293c0,0.163-0.225,0.379-0.488,0.525C24.982,41.187,24.794,41.253,24.639,41.253z"/>
		<path fill="#3498DB" d="M8.119,32.374c0-0.365-0.192-0.674-0.469-0.872c-0.179-0.128-0.386-0.22-0.623-0.22
			c-0.346,0-0.642,0.172-0.842,0.424c-0.148,0.187-0.25,0.412-0.25,0.668s0.102,0.481,0.25,0.668c0.2,0.252,0.496,0.424,0.842,0.424
			c0.236,0,0.444-0.092,0.623-0.22C7.926,33.048,8.119,32.739,8.119,32.374z"/>
		<circle fill="#3498DB" cx="9.86" cy="32.374" r="1.092"/>
	</g>
</g>
</svg>
