<?xml version="1.0" encoding="utf-8"?>
<!-- Generator: Adobe Illustrator 16.0.0, SVG Export Plug-In . SVG Version: 6.00 Build 0)  -->
<!DOCTYPE svg PUBLIC "-//W3C//DTD SVG 1.1//EN" "http://www.w3.org/Graphics/SVG/1.1/DTD/svg11.dtd">
<svg version="1.1"
	 id="svg53383" inkscape:output_extension="org.inkscape.output.svg.inkscape" sodipodi:docname="application-x-executable.svg" sodipodi:docbase="/home/tigert/cvs/freedesktop.org/tango-icon-theme/scalable/mimetypes" inkscape:version="0.46" sodipodi:version="0.32" xmlns:dc="http://purl.org/dc/elements/1.1/" xmlns:cc="http://creativecommons.org/ns#" xmlns:rdf="http://www.w3.org/1999/02/22-rdf-syntax-ns#" xmlns:svg="http://www.w3.org/2000/svg" xmlns:sodipodi="http://sodipodi.sourceforge.net/DTD/sodipodi-0.dtd" xmlns:inkscape="http://www.inkscape.org/namespaces/inkscape"
	 xmlns="http://www.w3.org/2000/svg" xmlns:xlink="http://www.w3.org/1999/xlink" x="0px" y="0px" width="48px" height="48px"
	 viewBox="0 0 48 48" enable-background="new 0 0 48 48" xml:space="preserve">
<g>
	<path fill="none" d="M33.035,28.686l0.259-0.535c0.192-0.401,0.371-0.834,0.528-1.283l0.195-0.563h0.229L32.427,24.9V35.84
		l3.882-3.881L33.035,28.686z"/>
	<path fill="none" d="M31.457,22.784c0.243-0.111,0.529-0.07,0.732,0.104l4.358,3.416l2.103-0.001v-7.158H34.02l-0.196-0.56
		c-0.158-0.453-0.337-0.886-0.53-1.286l-0.257-0.536l3.272-3.274l-5.063-5.063L27.973,11.7l-0.535-0.258
		c-0.397-0.192-0.83-0.37-1.285-0.53l-0.562-0.196V6.084h-7.16v4.632l-0.561,0.197c-0.462,0.163-0.894,0.341-1.284,0.529
		l-0.538,0.259l-3.273-3.274L7.712,13.49l3.274,3.273l-0.258,0.536c-0.191,0.397-0.369,0.829-0.529,1.286l-0.196,0.561H5.371v7.159
		h4.63l0.196,0.563c0.162,0.459,0.34,0.891,0.529,1.283l0.258,0.535l-3.273,3.273l5.063,5.063l3.274-3.273l0.537,0.259
		c0.4,0.193,0.831,0.37,1.282,0.527l0.563,0.198v4.631h7.16v-4.631l0.563-0.197c0.449-0.157,0.882-0.335,1.283-0.528l0.535-0.259
		l3.086,3.085V23.407C31.057,23.139,31.213,22.896,31.457,22.784z M22.01,27.98c-2.9,0-5.258-2.357-5.258-5.257
		c0-2.899,2.359-5.257,5.258-5.257c2.899,0,5.258,2.358,5.258,5.257C27.268,25.623,24.91,27.98,22.01,27.98z"/>
	<path fill="none" d="M35.053,28.33l3.631,3.628l-6.257,6.255v4.439l11.308-9.022l-7.318-5.649h-1.219
		C35.15,28.1,35.102,28.216,35.053,28.33z"/>
	<path fill="none" d="M22.01,19.144c-1.974,0-3.58,1.606-3.58,3.579c0,1.975,1.606,3.58,3.58,3.58c1.974,0,3.58-1.605,3.58-3.58
		S23.984,19.144,22.01,19.144z"/>
	<path fill="#8BE0FF" d="M27.971,33.748l-0.535,0.259c-0.401,0.193-0.834,0.371-1.283,0.528l-0.563,0.197v4.631h-7.16v-4.631
		l-0.563-0.198c-0.451-0.157-0.882-0.334-1.282-0.527l-0.537-0.259l-3.274,3.273l-5.063-5.063l3.273-3.273l-0.258-0.535
		c-0.189-0.393-0.367-0.824-0.529-1.283l-0.196-0.563h-4.63v-7.159h4.632l0.196-0.561c0.16-0.457,0.338-0.889,0.529-1.286
		l0.258-0.536L7.712,13.49l5.063-5.063l3.273,3.274l0.538-0.259c0.39-0.188,0.822-0.366,1.284-0.529l0.561-0.197V6.084h7.16v4.632
		l0.562,0.196c0.455,0.16,0.888,0.338,1.285,0.53l0.535,0.258l3.273-3.273l5.063,5.063l-3.272,3.274l0.257,0.536
		c0.193,0.4,0.372,0.833,0.53,1.286l0.196,0.56h4.631v7.158l-2.103,0.001l2.14,1.677h1.641V17.465h-5.133
		c-0.047-0.118-0.094-0.233-0.145-0.348l3.631-3.628l-7.438-7.435l-3.628,3.628c-0.115-0.049-0.231-0.097-0.349-0.143V4.406H16.752
		v5.133c-0.118,0.046-0.234,0.094-0.348,0.143l-3.629-3.628L5.34,13.489l3.628,3.628c-0.049,0.114-0.096,0.23-0.143,0.349H3.692
		v10.517h5.133c0.046,0.117,0.094,0.233,0.143,0.349L5.34,31.958l7.435,7.437l3.629-3.629c0.114,0.049,0.23,0.098,0.348,0.145v5.132
		H27.27v-5.133c0.117-0.046,0.232-0.095,0.348-0.144l3.439,3.44v-2.373L27.971,33.748z"/>
	<path fill="#8BE0FF" d="M22.01,17.466c-2.899,0-5.258,2.358-5.258,5.257c0,2.9,2.358,5.257,5.258,5.257
		c2.9,0,5.258-2.357,5.258-5.257C27.268,19.824,24.909,17.466,22.01,17.466z M22.01,26.303c-1.974,0-3.58-1.604-3.58-3.58
		c0-1.973,1.606-3.579,3.58-3.579c1.974,0,3.58,1.605,3.58,3.579S23.984,26.303,22.01,26.303z"/>
	<polygon fill="#3498DB" points="32.427,38.213 32.427,35.84 31.245,37.021 31.057,36.833 31.057,39.206 31.245,39.395 	"/>
	<path fill="#3498DB" d="M45.223,33.102l-6.535-5.121l-2.14-1.677l-4.358-3.416c-0.203-0.174-0.489-0.215-0.732-0.104
		c-0.244,0.112-0.4,0.355-0.4,0.623v13.426l0.188,0.188l1.182-1.182V24.9l1.819,1.404l2.17,1.676l7.318,5.649l-11.308,9.022v-4.439
		l-1.182,1.182l-0.188-0.188v4.976c0,0.267,0.158,0.51,0.405,0.621c0.246,0.112,0.534,0.067,0.735-0.113L45.23,34.134
		c0.146-0.131,0.231-0.329,0.229-0.518C45.456,33.418,45.371,33.23,45.223,33.102z"/>
</g>
</svg>
