<?xml version="1.0" encoding="utf-8"?>
<!-- Generator: Adobe Illustrator 16.0.0, SVG Export Plug-In . SVG Version: 6.00 Build 0)  -->
<!DOCTYPE svg PUBLIC "-//W3C//DTD SVG 1.1//EN" "http://www.w3.org/Graphics/SVG/1.1/DTD/svg11.dtd">
<svg version="1.1"
	 id="svg3440" inkscape:output_extension="org.inkscape.output.svg.inkscape" sodipodi:docname="internet-web-browser.svg" sodipodi:docbase="/home/jimmac/src/cvs/tango-icon-theme/scalable/apps" inkscape:version="0.46" sodipodi:version="0.32" xmlns:dc="http://purl.org/dc/elements/1.1/" xmlns:cc="http://creativecommons.org/ns#" xmlns:rdf="http://www.w3.org/1999/02/22-rdf-syntax-ns#" xmlns:svg="http://www.w3.org/2000/svg" xmlns:sodipodi="http://sodipodi.sourceforge.net/DTD/sodipodi-0.dtd" xmlns:inkscape="http://www.inkscape.org/namespaces/inkscape"
	 xmlns="http://www.w3.org/2000/svg" xmlns:xlink="http://www.w3.org/1999/xlink" x="0px" y="0px" width="48px" height="48px"
	 viewBox="0 0 48 48" enable-background="new 0 0 48 48" xml:space="preserve">
<path fill="#3498DB" d="M44.673,24.274c0.004-0.024,0.016-0.047,0.016-0.073c0-0.047-0.005-0.092-0.015-0.135
	c-0.035-5.623-2.29-10.863-6.356-14.768c-3.8-3.648-8.791-5.692-14.056-5.754l0,0l0,0L24.081,3.54l0,0l0,0
	c-0.005,0-0.064-0.001-0.068-0.001c-0.018,0-0.033,0.009-0.05,0.01C23.945,3.547,23.93,3.54,23.912,3.54c-0.001,0-0.002,0-0.004,0
	l-0.181,0.004l0,0l0,0C18.461,3.607,13.47,5.651,9.672,9.298c-4.102,3.936-6.36,9.229-6.36,14.903S5.57,35.167,9.67,39.104
	c3.678,3.531,8.473,5.554,13.55,5.735c0.036,0.008,0.07,0.02,0.106,0.021l0.118,0.002c0.002,0,0.005,0,0.007,0
	c0.003,0,0.007,0,0.01,0c0.001,0,0.002,0.001,0.003,0.001c0.007,0,0.046,0,0.052,0c0.021,0,0.039-0.009,0.059-0.011
	c0.051,0.001,0.1,0.005,0.15,0.005c0.003,0,0.005,0,0.009,0c0.09,0,0.177-0.023,0.26-0.059c0.083,0.035,0.17,0.059,0.26,0.059
	c0.003,0,0.005,0,0.008,0c0.067,0,0.132-0.005,0.199-0.007c0.026,0.003,0.047,0.012,0.075,0.012c0.002,0,0.005,0,0.008,0
	l0.183-0.005c0.034,0,0.063-0.015,0.094-0.02c5.059-0.195,9.833-2.216,13.497-5.734C42.399,35.186,44.653,29.92,44.673,24.274z
	 M37.868,37.672c-0.158-0.16-0.324-0.309-0.487-0.462c-0.125-0.119-0.248-0.241-0.375-0.356c-0.354-0.322-0.718-0.632-1.09-0.928
	c-0.032-0.025-0.065-0.056-0.098-0.081c-0.402-0.316-0.819-0.609-1.24-0.893c-0.136-0.092-0.274-0.173-0.412-0.26
	c-0.195-0.125-0.388-0.255-0.587-0.371c0.055-0.127,0.102-0.257,0.155-0.384c0.069-0.168,0.14-0.335,0.205-0.505
	c0.096-0.242,0.184-0.486,0.271-0.732c0.058-0.162,0.115-0.322,0.169-0.485c0.092-0.274,0.175-0.555,0.256-0.834
	c0.04-0.137,0.084-0.271,0.121-0.408c0.115-0.417,0.22-0.837,0.313-1.26c0.01-0.045,0.016-0.092,0.025-0.137
	c0.083-0.38,0.155-0.764,0.221-1.148c0.023-0.146,0.042-0.294,0.063-0.44c0.043-0.286,0.085-0.571,0.119-0.859
	c0.018-0.168,0.032-0.338,0.049-0.508c0.025-0.269,0.049-0.539,0.065-0.81c0.012-0.175,0.019-0.348,0.027-0.523
	c0.006-0.141,0.016-0.28,0.02-0.421h7.674C43.169,29.701,41.248,34.202,37.868,37.672z M31.274,35.938
	c-0.17,0.298-0.35,0.59-0.533,0.878c-0.088,0.138-0.169,0.281-0.261,0.417c-0.274,0.415-0.561,0.821-0.861,1.212
	c-0.002,0.002-0.003,0.005-0.005,0.008c-0.302,0.395-0.62,0.772-0.945,1.141c-0.105,0.118-0.216,0.229-0.323,0.344
	c-0.227,0.245-0.457,0.487-0.695,0.719c-0.132,0.129-0.27,0.252-0.404,0.377c-0.224,0.208-0.452,0.41-0.685,0.605
	c-0.146,0.124-0.297,0.243-0.445,0.362c-0.236,0.187-0.475,0.365-0.718,0.541c-0.153,0.111-0.308,0.22-0.464,0.325
	c-0.083,0.057-0.172,0.107-0.256,0.163v-9.977c0.083,0.003,0.166,0.003,0.249,0.008c0.128,0.007,0.257,0.015,0.384,0.025
	c0.219,0.015,0.434,0.036,0.65,0.06c0.125,0.015,0.25,0.029,0.375,0.044c0.228,0.032,0.455,0.069,0.682,0.108
	c0.106,0.019,0.215,0.035,0.322,0.056c0.307,0.061,0.613,0.128,0.917,0.206c0.023,0.006,0.048,0.01,0.071,0.016
	c0.327,0.085,0.654,0.18,0.979,0.285c0.095,0.03,0.187,0.065,0.28,0.098c0.23,0.077,0.458,0.157,0.685,0.246
	c0.115,0.044,0.229,0.092,0.342,0.139c0.207,0.085,0.412,0.174,0.616,0.267c0.118,0.054,0.234,0.107,0.352,0.163
	c0.08,0.039,0.16,0.082,0.239,0.122c-0.089,0.178-0.178,0.356-0.271,0.53C31.459,35.598,31.37,35.77,31.274,35.938z M22.589,42.542
	c-0.243-0.174-0.482-0.354-0.716-0.539c-0.151-0.121-0.3-0.238-0.448-0.364c-0.232-0.195-0.458-0.397-0.682-0.604
	c-0.137-0.126-0.275-0.249-0.407-0.379c-0.237-0.23-0.465-0.47-0.691-0.714c-0.109-0.117-0.222-0.229-0.327-0.349
	c-0.326-0.366-0.641-0.742-0.943-1.134c-0.007-0.011-0.014-0.021-0.021-0.029c-0.295-0.385-0.577-0.785-0.848-1.193
	c-0.092-0.139-0.177-0.284-0.265-0.425c-0.181-0.287-0.359-0.576-0.527-0.872c-0.096-0.17-0.187-0.344-0.279-0.516
	c-0.093-0.175-0.182-0.352-0.27-0.528c0.08-0.041,0.16-0.084,0.24-0.121c0.116-0.058,0.234-0.111,0.352-0.165
	c0.203-0.093,0.409-0.182,0.614-0.267c0.114-0.045,0.229-0.095,0.343-0.139c0.226-0.087,0.455-0.168,0.684-0.245
	c0.094-0.033,0.187-0.067,0.28-0.098c0.325-0.104,0.652-0.2,0.98-0.285c0.022-0.005,0.043-0.011,0.065-0.015
	c0.307-0.078,0.614-0.146,0.923-0.206c0.106-0.021,0.214-0.038,0.319-0.057c0.228-0.04,0.455-0.076,0.685-0.108
	c0.124-0.015,0.249-0.029,0.374-0.044c0.216-0.022,0.433-0.044,0.65-0.06c0.128-0.01,0.256-0.019,0.384-0.024
	c0.083-0.006,0.167-0.006,0.25-0.009v9.978c-0.084-0.055-0.172-0.106-0.255-0.163C22.896,42.763,22.743,42.653,22.589,42.542z
	 M14.863,31.763c-0.083-0.251-0.159-0.505-0.233-0.761c-0.04-0.137-0.082-0.271-0.121-0.41c-0.094-0.346-0.181-0.695-0.26-1.048
	c-0.01-0.047-0.024-0.094-0.034-0.141c-0.088-0.399-0.164-0.802-0.231-1.207c-0.021-0.124-0.037-0.253-0.055-0.379
	c-0.042-0.28-0.083-0.562-0.115-0.846c-0.018-0.153-0.03-0.309-0.045-0.463c-0.025-0.259-0.047-0.517-0.063-0.775
	c-0.011-0.163-0.018-0.325-0.025-0.489c-0.006-0.125-0.007-0.25-0.01-0.376h9.637v6.845c-0.098,0.003-0.194,0.013-0.291,0.018
	c-0.146,0.008-0.29,0.016-0.435,0.026c-0.23,0.016-0.458,0.04-0.687,0.064c-0.136,0.016-0.272,0.03-0.408,0.047
	c-0.252,0.034-0.503,0.076-0.753,0.12c-0.108,0.018-0.217,0.035-0.324,0.055c-0.359,0.07-0.715,0.147-1.07,0.237
	c-0.019,0.005-0.038,0.014-0.058,0.018c-0.333,0.087-0.664,0.182-0.992,0.289c-0.11,0.033-0.218,0.074-0.326,0.11
	c-0.24,0.082-0.478,0.166-0.715,0.258c-0.125,0.048-0.25,0.1-0.375,0.152c-0.22,0.09-0.438,0.182-0.655,0.282
	c-0.128,0.058-0.256,0.118-0.384,0.18c-0.082,0.04-0.164,0.073-0.244,0.113c-0.042-0.099-0.088-0.198-0.128-0.298
	c-0.065-0.156-0.128-0.313-0.19-0.473c-0.088-0.227-0.17-0.455-0.252-0.685C14.968,32.071,14.914,31.917,14.863,31.763z
	 M13.708,22.667c0.016-0.259,0.038-0.517,0.063-0.774c0.015-0.154,0.028-0.309,0.045-0.462c0.033-0.285,0.073-0.568,0.115-0.852
	c0.019-0.124,0.034-0.249,0.055-0.373c0.067-0.406,0.144-0.809,0.231-1.209c0.008-0.04,0.02-0.08,0.029-0.12
	c0.081-0.359,0.168-0.717,0.265-1.071c0.037-0.132,0.078-0.264,0.116-0.395c0.076-0.26,0.153-0.52,0.238-0.777
	c0.049-0.15,0.102-0.298,0.155-0.447c0.083-0.236,0.168-0.471,0.258-0.704c0.059-0.153,0.121-0.305,0.183-0.456
	c0.042-0.104,0.089-0.206,0.132-0.307c0.079,0.039,0.16,0.073,0.239,0.11c0.131,0.063,0.262,0.125,0.393,0.184
	c0.213,0.097,0.426,0.188,0.641,0.277c0.13,0.054,0.259,0.107,0.389,0.157c0.229,0.089,0.461,0.17,0.693,0.25
	c0.115,0.039,0.229,0.082,0.347,0.119c0.314,0.101,0.632,0.193,0.95,0.276c0.033,0.009,0.065,0.02,0.099,0.028
	c0.353,0.089,0.707,0.168,1.063,0.237c0.112,0.022,0.225,0.038,0.339,0.059c0.246,0.043,0.492,0.083,0.741,0.117
	c0.138,0.019,0.276,0.032,0.414,0.047c0.227,0.026,0.453,0.048,0.682,0.064c0.145,0.011,0.291,0.019,0.436,0.027
	c0.097,0.004,0.193,0.014,0.291,0.018v6.843h-9.637c0.003-0.125,0.005-0.251,0.01-0.376C13.689,22.995,13.697,22.83,13.708,22.667z
	 M16.713,12.463c0.169-0.298,0.348-0.587,0.529-0.875c0.088-0.14,0.172-0.284,0.264-0.421c0.271-0.411,0.555-0.811,0.851-1.198
	c0.006-0.007,0.011-0.015,0.017-0.022c0.301-0.393,0.617-0.771,0.944-1.138c0.106-0.121,0.219-0.233,0.329-0.351
	c0.225-0.242,0.452-0.482,0.688-0.712c0.134-0.13,0.272-0.254,0.41-0.381c0.222-0.205,0.448-0.407,0.679-0.602
	C21.572,6.64,21.723,6.52,21.873,6.4c0.234-0.185,0.473-0.364,0.714-0.539c0.155-0.111,0.309-0.221,0.467-0.327
	c0.083-0.057,0.17-0.107,0.255-0.162v9.976c-0.083-0.003-0.165-0.003-0.248-0.007c-0.129-0.007-0.26-0.015-0.388-0.025
	c-0.216-0.016-0.431-0.037-0.646-0.061c-0.126-0.013-0.253-0.027-0.378-0.045c-0.226-0.029-0.451-0.067-0.675-0.106
	c-0.11-0.019-0.221-0.035-0.33-0.056c-0.298-0.058-0.594-0.125-0.889-0.199c-0.033-0.008-0.067-0.014-0.1-0.023
	c-0.327-0.083-0.65-0.179-0.973-0.282c-0.102-0.032-0.202-0.07-0.305-0.105c-0.22-0.075-0.44-0.152-0.658-0.237
	c-0.121-0.047-0.242-0.098-0.364-0.147c-0.196-0.082-0.393-0.165-0.588-0.254c-0.125-0.057-0.251-0.117-0.375-0.176
	c-0.077-0.037-0.151-0.077-0.227-0.114c0.088-0.177,0.176-0.354,0.27-0.527C16.526,12.808,16.616,12.633,16.713,12.463z
	 M25.405,5.864c0.239,0.172,0.475,0.35,0.707,0.533c0.151,0.12,0.305,0.243,0.453,0.369c0.23,0.194,0.457,0.395,0.678,0.599
	c0.138,0.126,0.277,0.251,0.411,0.382c0.236,0.231,0.465,0.472,0.691,0.715c0.107,0.116,0.22,0.228,0.325,0.347
	c0.652,0.736,1.26,1.523,1.813,2.361c0.088,0.133,0.169,0.272,0.255,0.408c0.185,0.292,0.366,0.586,0.538,0.889
	c0.095,0.165,0.182,0.335,0.272,0.504c0.096,0.177,0.184,0.356,0.274,0.536c-0.078,0.039-0.155,0.08-0.232,0.117
	c-0.122,0.058-0.244,0.116-0.367,0.171c-0.197,0.09-0.397,0.175-0.597,0.257c-0.12,0.05-0.237,0.099-0.357,0.146
	c-0.221,0.085-0.441,0.164-0.665,0.239c-0.1,0.034-0.198,0.072-0.298,0.104c-0.323,0.104-0.648,0.2-0.975,0.283
	c-0.032,0.009-0.067,0.016-0.098,0.023c-0.296,0.074-0.592,0.141-0.891,0.198c-0.109,0.021-0.221,0.038-0.331,0.058
	c-0.225,0.039-0.448,0.076-0.674,0.106c-0.125,0.017-0.253,0.031-0.379,0.044c-0.214,0.024-0.429,0.044-0.646,0.061
	c-0.128,0.009-0.258,0.017-0.388,0.025c-0.083,0.004-0.165,0.004-0.248,0.007V5.371c0.083,0.055,0.169,0.105,0.252,0.16
	C25.09,5.639,25.247,5.751,25.405,5.864z M33.124,16.635c0.083,0.256,0.16,0.514,0.235,0.773c0.039,0.133,0.081,0.265,0.117,0.399
	c0.095,0.349,0.181,0.7,0.262,1.053c0.01,0.047,0.023,0.092,0.032,0.138c0.088,0.4,0.165,0.803,0.231,1.208
	c0.021,0.126,0.036,0.255,0.056,0.383c0.042,0.279,0.082,0.559,0.114,0.84c0.018,0.157,0.031,0.313,0.047,0.469
	c0.023,0.256,0.046,0.513,0.062,0.77c0.011,0.164,0.018,0.328,0.025,0.492c0.006,0.125,0.007,0.251,0.011,0.376h-9.638V16.69
	c0.098-0.004,0.194-0.014,0.291-0.018c0.146-0.008,0.291-0.016,0.436-0.027c0.228-0.016,0.456-0.04,0.682-0.064
	c0.138-0.015,0.276-0.028,0.415-0.047c0.246-0.033,0.492-0.074,0.737-0.116c0.113-0.02,0.228-0.037,0.341-0.059
	c0.355-0.069,0.71-0.147,1.062-0.236c0.036-0.009,0.071-0.021,0.107-0.031c0.317-0.083,0.63-0.173,0.942-0.273
	c0.117-0.038,0.233-0.081,0.35-0.12c0.229-0.079,0.46-0.16,0.688-0.248c0.131-0.051,0.262-0.104,0.393-0.158
	c0.214-0.087,0.427-0.18,0.639-0.276c0.13-0.059,0.263-0.12,0.392-0.183c0.081-0.038,0.161-0.072,0.24-0.112
	c0.045,0.104,0.092,0.208,0.136,0.313c0.062,0.148,0.122,0.297,0.18,0.448c0.09,0.234,0.177,0.469,0.261,0.707
	C33.021,16.337,33.073,16.485,33.124,16.635z M34.279,25.733c-0.015,0.26-0.039,0.517-0.063,0.776
	c-0.015,0.153-0.028,0.309-0.045,0.462c-0.033,0.284-0.073,0.565-0.115,0.848c-0.02,0.124-0.034,0.253-0.056,0.377
	c-0.067,0.405-0.144,0.808-0.23,1.209c-0.011,0.043-0.022,0.087-0.032,0.13c-0.08,0.355-0.167,0.708-0.263,1.059
	c-0.036,0.135-0.078,0.268-0.117,0.401c-0.076,0.26-0.152,0.517-0.235,0.771c-0.05,0.15-0.104,0.3-0.156,0.45
	c-0.082,0.234-0.169,0.469-0.259,0.7c-0.058,0.154-0.12,0.307-0.183,0.459c-0.042,0.101-0.089,0.202-0.132,0.306
	c-0.08-0.04-0.162-0.074-0.242-0.114c-0.128-0.062-0.259-0.121-0.389-0.181c-0.214-0.098-0.43-0.189-0.647-0.278
	c-0.127-0.054-0.254-0.105-0.382-0.155c-0.233-0.09-0.468-0.173-0.704-0.253c-0.112-0.038-0.223-0.079-0.335-0.115
	c-0.323-0.103-0.648-0.197-0.974-0.282c-0.025-0.007-0.052-0.016-0.076-0.022c-0.354-0.09-0.709-0.169-1.068-0.237
	c-0.108-0.021-0.218-0.037-0.328-0.055c-0.249-0.044-0.499-0.087-0.749-0.12c-0.137-0.017-0.273-0.032-0.41-0.047
	c-0.228-0.024-0.456-0.047-0.685-0.064c-0.145-0.011-0.289-0.019-0.435-0.026c-0.097-0.006-0.192-0.015-0.291-0.018v-6.845h9.637
	c-0.003,0.124-0.005,0.25-0.011,0.376C34.298,25.408,34.29,25.57,34.279,25.733z M35.657,23.535
	c-0.004-0.169-0.017-0.338-0.024-0.507c-0.008-0.168-0.015-0.336-0.025-0.504c-0.019-0.276-0.044-0.549-0.07-0.823
	c-0.016-0.162-0.028-0.323-0.048-0.484c-0.035-0.303-0.079-0.604-0.125-0.905c-0.02-0.129-0.036-0.257-0.057-0.386
	c-0.071-0.423-0.153-0.845-0.245-1.264c-0.024-0.108-0.055-0.213-0.078-0.32c-0.074-0.313-0.149-0.624-0.234-0.932
	c-0.045-0.161-0.096-0.321-0.144-0.481c-0.073-0.251-0.147-0.503-0.23-0.751c-0.058-0.173-0.12-0.344-0.181-0.516
	c-0.083-0.232-0.166-0.464-0.256-0.693c-0.068-0.175-0.141-0.347-0.211-0.518c-0.05-0.122-0.097-0.246-0.149-0.367
	c0.202-0.117,0.396-0.25,0.595-0.375c0.134-0.084,0.27-0.166,0.401-0.254c0.425-0.283,0.842-0.58,1.249-0.897
	c0.022-0.019,0.045-0.041,0.068-0.059c0.382-0.301,0.754-0.619,1.117-0.949c0.124-0.112,0.243-0.231,0.365-0.347
	c0.165-0.157,0.334-0.307,0.493-0.47c3.38,3.471,5.301,7.973,5.463,12.805H35.657z M36.895,9.797
	c-0.149,0.152-0.299,0.305-0.451,0.45c-0.108,0.101-0.212,0.207-0.321,0.306c-0.357,0.324-0.721,0.638-1.097,0.933
	c-0.034,0.026-0.067,0.049-0.1,0.074c-0.346,0.268-0.7,0.521-1.06,0.762c-0.126,0.085-0.257,0.165-0.385,0.246
	c-0.157,0.1-0.318,0.192-0.479,0.288c-0.104-0.207-0.218-0.405-0.327-0.608c-0.069-0.129-0.135-0.261-0.208-0.388
	c-0.254-0.448-0.518-0.888-0.796-1.313c-0.048-0.074-0.102-0.145-0.151-0.218c-0.236-0.354-0.482-0.699-0.736-1.036
	c-0.098-0.129-0.195-0.254-0.295-0.38c-0.229-0.29-0.463-0.571-0.705-0.848c-0.098-0.111-0.193-0.225-0.293-0.333
	c-0.337-0.371-0.682-0.732-1.041-1.075c-0.023-0.022-0.048-0.043-0.073-0.066c-0.337-0.32-0.685-0.626-1.042-0.922
	c-0.118-0.097-0.237-0.191-0.357-0.287c-0.142-0.112-0.279-0.231-0.424-0.339C30.393,5.547,33.984,7.191,36.895,9.797z
	 M21.013,5.378c-0.121,0.097-0.243,0.192-0.362,0.292c-0.353,0.292-0.698,0.596-1.032,0.912c-0.027,0.025-0.056,0.049-0.083,0.075
	C19.178,7,18.833,7.36,18.498,7.729c-0.1,0.11-0.197,0.225-0.295,0.337c-0.24,0.275-0.473,0.555-0.7,0.844
	c-0.101,0.127-0.202,0.253-0.3,0.384c-0.252,0.335-0.497,0.679-0.733,1.03c-0.05,0.075-0.104,0.146-0.154,0.222
	c-0.278,0.426-0.542,0.864-0.795,1.313c-0.072,0.126-0.138,0.257-0.208,0.386c-0.109,0.203-0.223,0.402-0.327,0.608
	c-0.161-0.096-0.323-0.188-0.481-0.289c-0.127-0.081-0.255-0.159-0.38-0.244c-0.365-0.244-0.722-0.5-1.073-0.771
	c-0.028-0.022-0.059-0.042-0.086-0.064c-0.376-0.295-0.741-0.609-1.1-0.935c-0.108-0.098-0.212-0.203-0.319-0.305
	c-0.153-0.146-0.302-0.299-0.452-0.45c2.909-2.606,6.501-4.25,10.342-4.756C21.291,5.149,21.154,5.267,21.013,5.378z M10.119,10.73
	c0.16,0.162,0.328,0.311,0.491,0.467c0.123,0.117,0.244,0.237,0.368,0.351c0.364,0.33,0.735,0.647,1.116,0.948
	c0.025,0.019,0.047,0.041,0.072,0.06c0.406,0.317,0.823,0.614,1.248,0.897c0.13,0.086,0.264,0.167,0.397,0.25
	c0.199,0.125,0.395,0.259,0.598,0.377c-0.058,0.134-0.11,0.271-0.166,0.406c-0.064,0.156-0.129,0.313-0.191,0.469
	c-0.098,0.254-0.191,0.511-0.282,0.769c-0.053,0.15-0.108,0.301-0.158,0.454c-0.096,0.288-0.182,0.578-0.267,0.87
	c-0.036,0.125-0.077,0.249-0.111,0.375c-0.114,0.419-0.221,0.842-0.313,1.268c-0.007,0.032-0.012,0.063-0.018,0.094
	c-0.086,0.395-0.161,0.792-0.229,1.191c-0.024,0.143-0.042,0.288-0.063,0.432c-0.042,0.288-0.084,0.576-0.117,0.866
	c-0.019,0.17-0.034,0.341-0.05,0.512c-0.025,0.266-0.048,0.532-0.065,0.799c-0.012,0.18-0.02,0.36-0.027,0.54
	c-0.006,0.137-0.017,0.274-0.021,0.411H4.656C4.818,18.702,6.738,14.2,10.119,10.73z M12.33,24.868
	c0.004,0.136,0.015,0.272,0.021,0.409c0.007,0.181,0.015,0.36,0.027,0.539c0.016,0.27,0.04,0.538,0.065,0.805
	c0.016,0.169,0.03,0.339,0.049,0.507c0.033,0.291,0.076,0.581,0.119,0.873c0.021,0.141,0.039,0.284,0.062,0.425
	c0.068,0.41,0.146,0.817,0.234,1.223c0.004,0.02,0.007,0.04,0.012,0.061c0.094,0.427,0.2,0.853,0.315,1.272
	c0.033,0.122,0.072,0.241,0.107,0.36c0.086,0.297,0.175,0.593,0.271,0.885c0.05,0.15,0.104,0.297,0.156,0.445
	c0.091,0.262,0.185,0.52,0.285,0.775c0.062,0.158,0.126,0.312,0.19,0.467c0.056,0.136,0.108,0.273,0.166,0.408
	c-0.201,0.117-0.395,0.248-0.593,0.374c-0.135,0.085-0.271,0.166-0.404,0.256c-0.423,0.283-0.839,0.578-1.244,0.895
	c-0.03,0.021-0.058,0.05-0.088,0.072c-0.375,0.298-0.742,0.609-1.1,0.936c-0.125,0.114-0.247,0.234-0.37,0.352
	c-0.164,0.156-0.331,0.305-0.491,0.466c-3.381-3.47-5.302-7.971-5.464-12.804H12.33z M11.093,38.605
	c0.149-0.152,0.298-0.305,0.451-0.451c0.106-0.102,0.213-0.206,0.322-0.305c0.357-0.326,0.721-0.639,1.096-0.933
	c0.034-0.027,0.07-0.051,0.104-0.077c0.345-0.268,0.699-0.52,1.057-0.76c0.125-0.083,0.252-0.162,0.378-0.242
	c0.159-0.101,0.322-0.194,0.484-0.291c0.104,0.208,0.218,0.406,0.327,0.609c0.069,0.128,0.136,0.258,0.207,0.384
	c0.254,0.45,0.518,0.89,0.796,1.317c0.047,0.072,0.099,0.141,0.147,0.212c0.238,0.355,0.486,0.702,0.741,1.041
	c0.096,0.128,0.195,0.253,0.293,0.377c0.229,0.291,0.464,0.573,0.706,0.851c0.098,0.111,0.192,0.225,0.291,0.332
	c0.337,0.372,0.682,0.733,1.042,1.076c0.026,0.023,0.054,0.046,0.08,0.07c0.335,0.318,0.681,0.621,1.035,0.916
	c0.12,0.099,0.243,0.195,0.364,0.292c0.141,0.11,0.276,0.228,0.418,0.334C17.595,42.856,14.003,41.212,11.093,38.605z
	 M26.969,43.028c0.123-0.098,0.248-0.195,0.369-0.298c0.351-0.29,0.693-0.592,1.025-0.905c0.029-0.027,0.06-0.053,0.089-0.079
	c0.357-0.343,0.702-0.702,1.038-1.072c0.101-0.11,0.198-0.227,0.297-0.339c0.238-0.274,0.472-0.554,0.699-0.842
	c0.1-0.127,0.2-0.255,0.299-0.386c0.253-0.334,0.495-0.678,0.731-1.028c0.051-0.075,0.104-0.148,0.154-0.224
	c0.278-0.426,0.543-0.864,0.795-1.313c0.072-0.127,0.14-0.26,0.209-0.39c0.109-0.202,0.222-0.4,0.326-0.604
	c0.161,0.095,0.324,0.188,0.483,0.289c0.126,0.08,0.254,0.159,0.379,0.243c0.357,0.238,0.707,0.489,1.049,0.754
	c0.037,0.028,0.076,0.055,0.113,0.083c0.374,0.293,0.735,0.605,1.092,0.93c0.112,0.102,0.222,0.209,0.333,0.316
	c0.151,0.144,0.297,0.293,0.442,0.442c-2.909,2.606-6.501,4.251-10.341,4.755C26.694,43.253,26.83,43.138,26.969,43.028z"/>
</svg>
