<?xml version="1.0" encoding="utf-8"?>
<!-- Generator: Adobe Illustrator 16.0.0, SVG Export Plug-In . SVG Version: 6.00 Build 0)  -->
<!DOCTYPE svg PUBLIC "-//W3C//DTD SVG 1.1//EN" "http://www.w3.org/Graphics/SVG/1.1/DTD/svg11.dtd">
<svg version="1.1"
	 id="svg249" xmlns:dc="http://purl.org/dc/elements/1.1/" xmlns:cc="http://creativecommons.org/ns#" xmlns:rdf="http://www.w3.org/1999/02/22-rdf-syntax-ns#" xmlns:svg="http://www.w3.org/2000/svg" xmlns:sodipodi="http://sodipodi.sourceforge.net/DTD/sodipodi-0.dtd" xmlns:inkscape="http://www.inkscape.org/namespaces/inkscape" inkscape:export-filename="/home/jimmac/gfx/novell/pdes/trunk/docs/BIGmime-text.png" inkscape:export-xdpi="240.00000" inkscape:export-ydpi="240.00000" sodipodi:version="0.32" inkscape:version="0.46" sodipodi:docbase="/home/jimmac/src/cvs/tango-icon-theme/scalable/actions" sodipodi:docname="document-new.svg" inkscape:output_extension="org.inkscape.output.svg.inkscape"
	 xmlns="http://www.w3.org/2000/svg" xmlns:xlink="http://www.w3.org/1999/xlink" x="0px" y="0px" width="48px" height="48px"
	 viewBox="0 0 48 48" enable-background="new 0 0 48 48" xml:space="preserve">
<defs>
	
	
		<inkscape:perspective  id="perspective69" sodipodi:type="inkscape:persp3d" inkscape:vp_x="0 : 24 : 1" inkscape:vp_y="0 : 1000 : 0" inkscape:vp_z="48 : 24 : 1" inkscape:persp3d-origin="24 : 16 : 1">
		</inkscape:perspective>
</defs>
<sodipodi:namedview  pagecolor="#ffffff" bordercolor="#666666" borderopacity="0.32941176" inkscape:zoom="1" inkscape:cx="-130.2425" inkscape:cy="-6.4480487" showgrid="false" id="base" inkscape:pageshadow="2" inkscape:pageopacity="0.0" inkscape:current-layer="layer6" inkscape:grid-bbox="true" inkscape:document-units="px" inkscape:window-width="872" inkscape:window-height="688" inkscape:window-x="166" inkscape:window-y="151" inkscape:showpageshadow="false">
	</sodipodi:namedview>
<g id="layer6" inkscape:label="Shadow" inkscape:groupmode="layer" display="none">
	<g id="g5022" transform="matrix(2.165152e-2,0,0,1.485743e-2,43.0076,42.68539)" display="inline">
		
			<linearGradient id="rect4173_1_" gradientUnits="userSpaceOnUse" x1="-758452.1875" y1="-2250.6123" x2="-758452.1875" y2="-2221.6089" gradientTransform="matrix(0.0013 0 0 4.353227e-004 -27132.957 -50433.8945)">
			<stop  offset="0" style="stop-color:#000000;stop-opacity:0"/>
			<stop  offset="0.5" style="stop-color:#000000"/>
			<stop  offset="1" style="stop-color:#000000;stop-opacity:0"/>
		</linearGradient>
		
			<rect id="rect4173" x="-1559.166" y="-150.71" opacity="0.4021" fill="url(#rect4173_1_)" enable-background="new    " width="1339.526" height="478.389"/>
		
			<radialGradient id="path5058_1_" cx="-46.9424" cy="88.4844" r="3.6472" gradientTransform="matrix(0.0013 0 0 4.353227e-004 -27132.418 -50433.8945)" gradientUnits="userSpaceOnUse">
			<stop  offset="0" style="stop-color:#000000"/>
			<stop  offset="1" style="stop-color:#000000;stop-opacity:0"/>
		</radialGradient>
		<path id="path5058" sodipodi:nodetypes="cccc" opacity="0.4021" fill="url(#path5058_1_)" enable-background="new    " d="
			M-219.641-150.644v478.257c142.886,0.92,345.396-107.141,345.396-239.129C125.756-43.568-33.637-150.644-219.641-150.644z"/>
		
			<radialGradient id="path5018_1_" cx="-1731.8643" cy="88.4844" r="3.6472" gradientTransform="matrix(-0.0013 0 0 4.353227e-004 -26650.1914 -50433.8945)" gradientUnits="userSpaceOnUse">
			<stop  offset="0" style="stop-color:#000000"/>
			<stop  offset="1" style="stop-color:#000000;stop-opacity:0"/>
		</radialGradient>
		<path id="path5018" sodipodi:nodetypes="cccc" opacity="0.4021" fill="url(#path5018_1_)" enable-background="new    " d="
			M-1559.166-150.644v478.257c-142.886,0.92-345.396-107.141-345.396-239.129C-1904.563-43.568-1745.124-150.644-1559.166-150.644z"
			/>
	</g>
</g>
<g id="layer1" inkscape:label="Base" inkscape:groupmode="layer" display="none">
	
		<radialGradient id="rect15391_1_" cx="169.1221" cy="749.3936" r="86.7074" gradientTransform="matrix(0.9605 0 0 1.0411 -129.8159 -742.991)" gradientUnits="userSpaceOnUse">
		<stop  offset="0" style="stop-color:#FAFAFA"/>
		<stop  offset="1" style="stop-color:#BBBBBB"/>
	</radialGradient>
	
		<radialGradient id="rect15391_2_" cx="139.2637" cy="723.1709" r="37.7517" gradientTransform="matrix(0.9683 0 0 1.0328 -122.9491 -742.362)" gradientUnits="userSpaceOnUse">
		<stop  offset="0" style="stop-color:#A3A3A3"/>
		<stop  offset="1" style="stop-color:#4C4C4C"/>
	</radialGradient>
	
		<path id="rect15391" display="inline" fill="url(#rect15391_1_)" stroke="url(#rect15391_2_)" stroke-linecap="round" stroke-linejoin="round" d="
		M7.752,3.646H40.33c0.634,0,1.148,0.515,1.148,1.149v38.623c0,0.635-0.516,1.148-1.148,1.148H7.752
		c-0.634,0-1.149-0.515-1.149-1.148V4.795C6.604,4.161,7.118,3.646,7.752,3.646z"/>
	
		<radialGradient id="rect15660_1_" cx="138.583" cy="726.6826" r="38.1574" gradientTransform="matrix(0.9683 0 0 1.0328 -122.9491 -742.362)" gradientUnits="userSpaceOnUse">
		<stop  offset="0" style="stop-color:#FFFFFF"/>
		<stop  offset="1" style="stop-color:#F8F8F8"/>
	</radialGradient>
	
		<path id="rect15660" display="inline" fill="none" stroke="url(#rect15660_1_)" stroke-linecap="round" stroke-linejoin="round" d="
		M7.815,4.584h32.478c0.082,0,0.148,0.067,0.148,0.149v38.648c0,0.083-0.066,0.149-0.148,0.149H7.815
		c-0.082,0-0.149-0.066-0.149-0.149V4.733C7.666,4.651,7.733,4.584,7.815,4.584z"/>
	<g id="g2270" transform="translate(0.646447,-3.798933e-2)" display="inline">
		<g id="g1440" transform="matrix(0.229703,0.000000,0.000000,0.229703,4.967081,4.244972)">
			<path id="path1448" fill="#FFFFFF" d="M23.429,113.071c0,1.973-1.601,3.571-3.573,3.571c-1.975,0-3.571-1.599-3.571-3.571
				s1.601-3.571,3.571-3.571C21.828,109.5,23.429,111.098,23.429,113.071z"/>
			<path id="path1456" fill="#FFFFFF" d="M23.429,63.07c0,1.973-1.601,3.573-3.573,3.573c-1.975,0-3.571-1.601-3.571-3.573
				s1.601-3.573,3.571-3.573C21.828,59.497,23.429,61.097,23.429,63.07z"/>
		</g>
		
			<radialGradient id="path15570_1_" cx="2019.6074" cy="3349.2012" r="5.2544" gradientTransform="matrix(0.2297 0 0 0.2297 -454.4946 -739.019)" gradientUnits="userSpaceOnUse">
			<stop  offset="0" style="stop-color:#F0F0F0"/>
			<stop  offset="1" style="stop-color:#9A9A9A"/>
		</radialGradient>
		<path id="path15570" fill="url(#path15570_1_)" d="M9.995,29.952c0,0.453-0.368,0.82-0.821,0.82c-0.454,0-0.821-0.367-0.821-0.82
			s0.368-0.82,0.821-0.82C9.627,29.132,9.995,29.499,9.995,29.952z"/>
		
			<radialGradient id="path15577_1_" cx="2019.6074" cy="3299.2012" r="5.2568" gradientTransform="matrix(0.2297 0 0 0.2297 -454.4946 -739.019)" gradientUnits="userSpaceOnUse">
			<stop  offset="0" style="stop-color:#F0F0F0"/>
			<stop  offset="1" style="stop-color:#9A9A9A"/>
		</radialGradient>
		<path id="path15577" fill="url(#path15577_1_)" d="M9.995,18.467c0,0.453-0.368,0.821-0.821,0.821
			c-0.454,0-0.821-0.368-0.821-0.821c0-0.454,0.368-0.821,0.821-0.821C9.627,17.646,9.995,18.014,9.995,18.467z"/>
	</g>
	
		<path id="path15672" sodipodi:nodetypes="cc" display="inline" fill="none" stroke="#000000" stroke-width="0.9886" stroke-opacity="0.0175" d="
		M11.506,5.494V43.4"/>
	<path id="path15674" sodipodi:nodetypes="cc" display="inline" fill="none" stroke="#FFFFFF" stroke-opacity="0.2047" d="
		M12.5,5.021v38.018"/>
</g>
<g id="layer4" inkscape:label="new" inkscape:groupmode="layer" display="none">
	
		<radialGradient id="path12511_1_" cx="322.7559" cy="1073.5527" r="14.375" gradientTransform="matrix(0.7833 0 0 0.7833 -216.0743 -829.6541)" gradientUnits="userSpaceOnUse">
		<stop  offset="0" style="stop-color:#FFFFFF"/>
		<stop  offset="0.5" style="stop-color:#FFF520;stop-opacity:0.8911"/>
		<stop  offset="1" style="stop-color:#FFF300;stop-opacity:0"/>
	</radialGradient>
	
		<path id="path12511" sodipodi:rx="14.375000" sodipodi:ry="14.375000" sodipodi:cy="125.00000" sodipodi:cx="55.000000" sodipodi:type="arc" inkscape:export-filename="/home/jimmac/ximian_art/icons/nautilus/suse93/stock_new-16.png" inkscape:export-xdpi="33.852203" inkscape:export-ydpi="33.852203" display="inline" fill="url(#path12511_1_)" d="
		M48,11.26c0,6.219-5.041,11.26-11.26,11.26s-11.26-5.041-11.26-11.26C25.48,5.041,30.521,0,36.74,0S48,5.041,48,11.26z"/>
</g>
<polygon fill="#3498DB" points="42.6,22.592 25.411,22.592 25.411,5.4 22.584,5.4 22.584,22.592 5.401,22.592 5.401,25.415 
	22.584,25.415 22.584,42.6 25.411,42.6 25.411,25.415 42.6,25.415 "/>
</svg>
