<?xml version="1.0" encoding="utf-8"?>
<!-- Generator: Adobe Illustrator 16.0.0, SVG Export Plug-In . SVG Version: 6.00 Build 0)  -->
<!DOCTYPE svg PUBLIC "-//W3C//DTD SVG 1.1//EN" "http://www.w3.org/Graphics/SVG/1.1/DTD/svg11.dtd">
<svg version="1.1"
	 id="svg249" inkscape:output_extension="org.inkscape.output.svg.inkscape" sodipodi:docname="tryton-print-open.svg" inkscape:version="0.48.1 r9760" sodipodi:version="0.32" xmlns:dc="http://purl.org/dc/elements/1.1/" xmlns:cc="http://creativecommons.org/ns#" xmlns:rdf="http://www.w3.org/1999/02/22-rdf-syntax-ns#" xmlns:svg="http://www.w3.org/2000/svg" xmlns:sodipodi="http://sodipodi.sourceforge.net/DTD/sodipodi-0.dtd" xmlns:inkscape="http://www.inkscape.org/namespaces/inkscape" inkscape:export-ydpi="240.00000" inkscape:export-xdpi="240.00000" inkscape:export-filename="/home/jimmac/gfx/novell/pdes/trunk/docs/BIGmime-text.png"
	 xmlns="http://www.w3.org/2000/svg" xmlns:xlink="http://www.w3.org/1999/xlink" x="0px" y="0px" width="48px" height="48px"
	 viewBox="0 0 48 48" enable-background="new 0 0 48 48" xml:space="preserve">
<g>
	<path fill="none" d="M23.562,23.191v3.004h3.82c1.262,0,2.613,0.781,2.613,1.944v12.165c0,1.223-1.438,2.271-2.613,2.271h-3.82
		v0.274h19.756V16.333h-11.91c-0.404,0-0.73-0.328-0.73-0.73V3.691H14.616v17.555h6.703C22.619,21.246,23.562,22.064,23.562,23.191z
		"/>
	<path fill="none" d="M13.157,43.58v-7.438h-2.023c-0.408,0-0.439,0.538-0.439,0.703v7.295c0,0.357,0.136,0.861,0.439,0.861h10.185
		c0.272,0,0.584-0.348,0.672-0.69h-8.104C13.483,44.311,13.157,43.984,13.157,43.58z"/>
	<path fill="none" d="M21.319,34.608c1.194,0,2.243,1.046,2.243,2.236v4.197h3.82c0.424,0,1.082-0.448,1.082-0.737V28.14
		c0-0.228-0.592-0.412-1.082-0.412H14.616v6.881H21.319z"/>
	<path fill="none" d="M21.319,36.142h-6.703v6.708h7.413v-6.005C22.029,36.497,21.67,36.142,21.319,36.142z"/>
	<path fill="none" d="M5.319,27.728c-0.52,0-0.563,0.204-0.563,0.412v12.165c0,0.356,0.227,0.737,0.563,0.737h3.843v-4.197
		c0-1.274,0.848-2.236,1.972-2.236h2.023v-6.881H5.319z M7.997,34.029c-0.598,0-1.085-0.486-1.085-1.085
		c0-0.598,0.487-1.084,1.085-1.084c0.598,0,1.084,0.486,1.084,1.084C9.081,33.543,8.594,34.029,7.997,34.029z M10.804,34.029
		c-0.598,0-1.085-0.486-1.085-1.085c0-0.598,0.487-1.084,1.085-1.084c0.598,0,1.084,0.486,1.084,1.084
		C11.888,33.543,11.402,34.029,10.804,34.029z"/>
	<path fill="none" d="M22.029,26.195v-3.004c0-0.372-0.497-0.412-0.71-0.412h-6.703v3.416H22.029z"/>
	<path fill="none" d="M11.134,22.779c-0.381,0-0.439,0.092-0.439,0.412v3.004h2.462v-3.416H11.134z"/>
	<polygon fill="none" points="32.136,14.874 42.286,14.874 32.136,4.723 	"/>
	<circle fill="#3498DB" cx="7.997" cy="32.945" r="1.084"/>
	<circle fill="#3498DB" cx="10.804" cy="32.945" r="1.084"/>
	<path fill="#3498DB" d="M44.769,15.557c-0.006-0.064-0.018-0.128-0.037-0.189c-0.01-0.022-0.016-0.045-0.023-0.067
		c-0.037-0.077-0.082-0.151-0.145-0.214L31.923,2.445c-0.063-0.063-0.137-0.107-0.213-0.142c-0.023-0.011-0.047-0.017-0.072-0.025
		c-0.059-0.02-0.121-0.032-0.184-0.036c-0.018-0.002-0.031-0.009-0.049-0.009H13.886c-0.403,0-0.729,0.327-0.729,0.729v18.284h1.459
		V3.691h16.061v11.911c0,0.402,0.326,0.73,0.73,0.73h11.91V42.85H23.562v1.29c0,0.058-0.014,0.113-0.019,0.171h20.503
		c0.404,0,0.73-0.326,0.73-0.73V15.602C44.778,15.586,44.769,15.572,44.769,15.557z M32.136,14.874V4.723l10.15,10.15H32.136z"/>
	<path fill="#3498DB" d="M27.382,26.195h-3.82v-3.004c0-1.127-0.943-1.946-2.243-1.946h-6.703h-1.459h-2.023
		c-1.198,0-1.972,0.764-1.972,1.946v3.004H5.319c-1.254,0-2.096,0.781-2.096,1.944v12.165c0,1.251,0.94,2.271,2.096,2.271h3.843
		v1.564c0,1.177,0.738,2.395,1.972,2.395h10.185c1.099,0,2.129-1.059,2.224-2.224c0.005-0.058,0.019-0.113,0.019-0.171v-1.29v-0.274
		h3.82c1.176,0,2.613-1.048,2.613-2.271V28.14C29.995,26.977,28.644,26.195,27.382,26.195z M10.694,23.191
		c0-0.32,0.058-0.412,0.439-0.412h2.023h1.459h6.703c0.213,0,0.71,0.041,0.71,0.412v3.004h-7.413h-1.459h-2.462V23.191z
		 M22.029,42.85v1.29c0,0.056-0.023,0.113-0.038,0.171c-0.088,0.343-0.399,0.69-0.672,0.69H11.134c-0.303,0-0.439-0.504-0.439-0.861
		v-7.295c0-0.165,0.032-0.703,0.439-0.703h2.023h1.459h6.703c0.352,0,0.71,0.355,0.71,0.703V42.85z M28.464,40.305
		c0,0.289-0.658,0.737-1.082,0.737h-3.82v-4.197c0-1.19-1.048-2.236-2.243-2.236h-6.703h-1.459h-2.023
		c-1.124,0-1.972,0.962-1.972,2.236v4.197H5.319c-0.337,0-0.563-0.381-0.563-0.737V28.14c0-0.208,0.043-0.412,0.563-0.412h7.838
		h1.459h12.766c0.49,0,1.082,0.185,1.082,0.412V40.305z"/>
</g>
</svg>
