<?xml version="1.0" encoding="utf-8"?>
<!-- Generator: Adobe Illustrator 16.0.0, SVG Export Plug-In . SVG Version: 6.00 Build 0)  -->
<!DOCTYPE svg PUBLIC "-//W3C//DTD SVG 1.1//EN" "http://www.w3.org/Graphics/SVG/1.1/DTD/svg11.dtd">
<svg version="1.1"
	 id="svg9121" xmlns:dc="http://purl.org/dc/elements/1.1/" xmlns:cc="http://creativecommons.org/ns#" xmlns:rdf="http://www.w3.org/1999/02/22-rdf-syntax-ns#" xmlns:svg="http://www.w3.org/2000/svg" xmlns:sodipodi="http://sodipodi.sourceforge.net/DTD/sodipodi-0.dtd" xmlns:inkscape="http://www.inkscape.org/namespaces/inkscape" inkscape:export-filename="/home/andreas/projekt/bild/tango/scalable/draw-pencil3.png" inkscape:export-xdpi="90.000000" inkscape:export-ydpi="90.000000" sodipodi:version="0.32" inkscape:version="0.48.2 r9819" sodipodi:docname="tryton-text-foreground.svg" inkscape:output_extension="org.inkscape.output.svg.inkscape"
	 xmlns="http://www.w3.org/2000/svg" xmlns:xlink="http://www.w3.org/1999/xlink" x="0px" y="0px" width="48px" height="48px"
	 viewBox="0 0 48 48" enable-background="new 0 0 48 48" xml:space="preserve">
<defs>
	
	
		<inkscape:perspective  id="perspective77" sodipodi:type="inkscape:persp3d" inkscape:vp_x="0 : 24 : 1" inkscape:vp_y="0 : 1000 : 0" inkscape:vp_z="48 : 24 : 1" inkscape:persp3d-origin="24 : 16 : 1">
		</inkscape:perspective>
</defs>
<sodipodi:namedview  stroke="#204a87" fill="#3465a4" pagecolor="#ffffff" bordercolor="#666666" borderopacity="0.17254902" inkscape:zoom="4" inkscape:cx="35.925926" inkscape:cy="25.863906" showgrid="false" id="base" inkscape:pageshadow="2" inkscape:pageopacity="0.0" inkscape:current-layer="layer1" inkscape:grid-bbox="true" inkscape:document-units="px" inkscape:window-width="1022" inkscape:window-height="751" inkscape:window-x="0" inkscape:window-y="15" inkscape:showpageshadow="false" showguides="true" inkscape:window-maximized="0" inkscape:guide-bbox="true">
	</sodipodi:namedview>
<rect x="3.078" y="2.895" fill="#3498DB" width="42.173" height="42.173"/>
<g>
	<path fill="#FFFFFF" d="M27.719,39.512c-0.395-1.321-0.662-5.514-0.662-8.792c0-0.401-0.105-0.778-0.287-1.105
		c0.184-0.406,0.285-0.854,0.285-1.328v-6.002c0-1.797-1.461-3.258-3.257-3.258h-3.081c-0.028-0.371-0.048-0.74-0.059-1.101
		c-0.013-0.324-0.018-0.625-0.019-0.922c-0.004-0.313,0-0.568,0.014-0.79c0.026-0.48,0.084-0.945,0.168-1.36
		c0.091-0.444,0.191-0.733,0.23-0.837c0.006-0.018,0.013-0.036,0.02-0.054c0.025-0.072,0.046-0.125,0.061-0.156
		c1.261-2.407,0.341-5.396-2.062-6.677c-0.71-0.378-1.509-0.578-2.311-0.581c-0.802,0.003-1.601,0.203-2.311,0.581
		c-2.403,1.281-3.322,4.27-2.061,6.677c0.014,0.031,0.036,0.084,0.061,0.156c0.006,0.018,0.013,0.036,0.02,0.054
		c0.039,0.104,0.139,0.393,0.23,0.837c0.084,0.415,0.142,0.88,0.168,1.36c0.014,0.222,0.019,0.478,0.015,0.79
		c-0.001,0.296-0.005,0.598-0.019,0.922c-0.012,0.36-0.031,0.73-0.059,1.101H9.724c-1.797,0-3.258,1.461-3.258,3.258v6.002
		c0,0.474,0.103,0.922,0.286,1.328c-0.182,0.327-0.287,0.704-0.287,1.105c0,3.277-0.267,7.471-0.662,8.792
		c-0.81,0.667-0.964,1.609-0.813,2.309c0.416,1.92,2.428,1.92,3.089,1.92c1.536,0,4.306-0.271,4.422-0.281
		c0.179-0.019,0.352-0.057,0.516-0.112c0.175,0.044,0.358,0.067,0.543,0.067l3.2,0.016l3.201-0.016c0.186,0,0.368-0.024,0.543-0.067
		c0.164,0.056,0.337,0.094,0.516,0.112c0.117,0.011,2.887,0.281,4.423,0.281c0.661,0,2.673,0,3.089-1.92
		C28.682,41.121,28.529,40.179,27.719,39.512z M21.282,41.276l-1.223-5.332l-0.611,5.279l-5.916-0.002l-1.292-3.109v3.164
		c0,0-6.206,0.608-4.867,0s1.338-10.465,1.338-10.465h8.049h8.05c0,0,0,9.856,1.338,10.465S21.282,41.276,21.282,41.276z"/>
</g>
</svg>
