<?xml version="1.0" encoding="utf-8"?>
<!-- Generator: Adobe Illustrator 16.0.0, SVG Export Plug-In . SVG Version: 6.00 Build 0)  -->
<!DOCTYPE svg PUBLIC "-//W3C//DTD SVG 1.1//EN" "http://www.w3.org/Graphics/SVG/1.1/DTD/svg11.dtd">
<svg version="1.1"
	 id="svg11300" inkscape:output_extension="org.inkscape.output.svg.inkscape" sodipodi:docname="edit-undo.svg" sodipodi:docbase="/home/tigert/cvs/freedesktop.org/tango-icon-theme/scalable/actions" inkscape:version="0.46" sodipodi:version="0.32" xmlns:dc="http://purl.org/dc/elements/1.1/" xmlns:cc="http://creativecommons.org/ns#" xmlns:rdf="http://www.w3.org/1999/02/22-rdf-syntax-ns#" xmlns:svg="http://www.w3.org/2000/svg" xmlns:sodipodi="http://sodipodi.sourceforge.net/DTD/sodipodi-0.dtd" xmlns:inkscape="http://www.inkscape.org/namespaces/inkscape" inkscape:export-ydpi="90.000000" inkscape:export-xdpi="90.000000" inkscape:export-filename="/home/jimmac/Desktop/wi-fi.png"
	 xmlns="http://www.w3.org/2000/svg" xmlns:xlink="http://www.w3.org/1999/xlink" x="0px" y="0px" width="48px" height="48px"
	 viewBox="0 0 48 48" enable-background="new 0 0 48 48" xml:space="preserve">
<path fill="#3498DB" d="M30.131,14.914H13.948l1.336-1.336c0.833-0.833,0.833-2.183,0-3.017c-0.833-0.833-2.183-0.833-3.017,0
	L7.29,15.538c-0.001,0.001-0.002,0.001-0.002,0.001L5.78,17.048l1.508,1.507c0,0,0.001,0.001,0.002,0.003l5.332,5.331
	c0.417,0.417,0.963,0.625,1.508,0.625c0.547,0,1.092-0.208,1.509-0.625c0.833-0.833,0.833-2.183,0-3.017l-1.691-1.691h16.183
	c4.313,0,7.822,3.51,7.822,7.822c0,4.312-3.51,7.822-7.822,7.822H8.799c-1.179,0-2.134,0.955-2.134,2.133s0.955,2.133,2.134,2.133
	h21.332c6.666,0,12.088-5.423,12.088-12.088S36.797,14.914,30.131,14.914z"/>
</svg>
