<?xml version="1.0" encoding="utf-8"?>
<!-- Generator: Adobe Illustrator 16.0.0, SVG Export Plug-In . SVG Version: 6.00 Build 0)  -->
<!DOCTYPE svg PUBLIC "-//W3C//DTD SVG 1.1//EN" "http://www.w3.org/Graphics/SVG/1.1/DTD/svg11.dtd">
<svg version="1.1"
	 id="svg4198" inkscape:output_extension="org.inkscape.output.svg.inkscape" sodipodi:docname="edit-copy.svg" sodipodi:docbase="/home/tigert/cvs/freedesktop.org/tango-icon-theme/scalable/actions" inkscape:version="0.46" sodipodi:version="0.32" xmlns:dc="http://purl.org/dc/elements/1.1/" xmlns:cc="http://creativecommons.org/ns#" xmlns:rdf="http://www.w3.org/1999/02/22-rdf-syntax-ns#" xmlns:svg="http://www.w3.org/2000/svg" xmlns:sodipodi="http://sodipodi.sourceforge.net/DTD/sodipodi-0.dtd" xmlns:inkscape="http://www.inkscape.org/namespaces/inkscape"
	 xmlns="http://www.w3.org/2000/svg" xmlns:xlink="http://www.w3.org/1999/xlink" x="0px" y="0px" width="48px" height="48px"
	 viewBox="0 0 48 48" enable-background="new 0 0 48 48" xml:space="preserve">
<g>
	<path fill="none" d="M21.426,9.19c0.056,0.004,0.109,0.014,0.161,0.031c0.021,0.007,0.042,0.012,0.062,0.022
		c0.065,0.03,0.13,0.068,0.185,0.124l10.987,10.987c0.055,0.055,0.095,0.119,0.126,0.187c0.008,0.02,0.012,0.039,0.021,0.059
		c0.018,0.053,0.027,0.107,0.032,0.165c0.001,0.012,0.008,0.025,0.007,0.039V37.55h5.67V14.499H28.324
		c-0.351,0-0.635-0.284-0.635-0.635V3.511H13.73v5.671h7.654C21.399,9.182,21.411,9.188,21.426,9.19z"/>
	<polygon fill="none" points="22.019,11.347 22.019,20.169 30.842,20.169 	"/>
	<path fill="none" d="M21.386,21.438c-0.351,0-0.635-0.284-0.635-0.635V10.449H13.73V37.55h18.008V21.438H21.386z"/>
	<polygon fill="none" points="28.958,13.23 37.78,13.23 28.958,4.408 	"/>
	<path fill="none" d="M12.461,38.184V10.449h-5.67v34.038h24.947v-5.669H13.095C12.745,38.818,12.461,38.535,12.461,38.184z"/>
	<path fill="#73CAFF" d="M39.938,13.826c-0.004-0.057-0.015-0.112-0.032-0.165c-0.008-0.02-0.013-0.04-0.021-0.059
		c-0.031-0.067-0.07-0.131-0.125-0.187L28.773,2.428c-0.055-0.055-0.12-0.094-0.186-0.124c-0.021-0.01-0.04-0.015-0.062-0.022
		c-0.052-0.018-0.105-0.027-0.161-0.031c-0.016-0.002-0.026-0.008-0.042-0.008H13.095c-0.351,0-0.634,0.284-0.634,0.634v6.305h1.269
		V3.511h13.959v10.354c0,0.351,0.284,0.635,0.635,0.635h10.353V37.55h-5.67v1.269h6.305c0.35,0,0.634-0.283,0.634-0.635V13.864
		C39.947,13.851,39.939,13.838,39.938,13.826z M28.958,13.23V4.408l8.822,8.822H28.958z"/>
	<path fill="#3498DB" d="M33,20.764c-0.005-0.057-0.015-0.112-0.032-0.165c-0.009-0.02-0.013-0.04-0.021-0.059
		c-0.031-0.067-0.071-0.131-0.126-0.187L21.834,9.367c-0.055-0.055-0.119-0.094-0.185-0.124c-0.021-0.01-0.041-0.015-0.062-0.022
		c-0.052-0.018-0.105-0.027-0.161-0.031c-0.016-0.002-0.027-0.008-0.042-0.008H13.73h-1.269H6.157c-0.352,0-0.635,0.284-0.635,0.634
		v35.306c0,0.351,0.284,0.634,0.635,0.634h26.215c0.351,0,0.635-0.283,0.635-0.634v-6.304V37.55V20.803
		C33.008,20.789,33.001,20.776,33,20.764z M22.019,11.347l8.823,8.822h-8.823V11.347z M31.738,38.818v5.669H6.791V10.449h5.67h1.269
		h7.021v10.354c0,0.351,0.284,0.635,0.635,0.635h10.353V37.55V38.818z"/>
</g>
</svg>
