<?xml version="1.0" encoding="utf-8"?>
<!-- Generator: Adobe Illustrator 16.0.0, SVG Export Plug-In . SVG Version: 6.00 Build 0)  -->
<!DOCTYPE svg PUBLIC "-//W3C//DTD SVG 1.1//EN" "http://www.w3.org/Graphics/SVG/1.1/DTD/svg11.dtd">
<svg version="1.1"
	 id="svg1256" inkscape:output_extension="org.inkscape.output.svg.inkscape" sodipodi:docname="x-office-address-book.svg" inkscape:version="0.48.2 r9819" sodipodi:version="0.32" xmlns:dc="http://purl.org/dc/elements/1.1/" xmlns:cc="http://creativecommons.org/ns#" xmlns:rdf="http://www.w3.org/1999/02/22-rdf-syntax-ns#" xmlns:svg="http://www.w3.org/2000/svg" xmlns:sodipodi="http://sodipodi.sourceforge.net/DTD/sodipodi-0.dtd" xmlns:inkscape="http://www.inkscape.org/namespaces/inkscape"
	 xmlns="http://www.w3.org/2000/svg" xmlns:xlink="http://www.w3.org/1999/xlink" x="0px" y="0px" width="48px" height="48px"
	 viewBox="0 0 48 48" enable-background="new 0 0 48 48" xml:space="preserve">
<g>
	<g>
		<path fill="#3498DB" d="M8.319,45.188V2.813h30.318v42.376L23.98,39.394c-0.314-0.121-0.69-0.125-1.005,0L8.319,45.188z
			 M23.475,37.649c0.381,0,0.753,0.07,1.108,0.208l12.402,4.901V4.464H9.971V42.76l12.398-4.901
			C22.722,37.72,23.095,37.649,23.475,37.649z"/>
	</g>
	<g>
		<path fill="#3498DB" d="M27.728,32.415c-0.324,0-0.648-0.106-0.913-0.297l-3.337-2.424l-3.333,2.422
			c-0.544,0.392-1.294,0.389-1.829,0.002c-0.547-0.395-0.775-1.095-0.567-1.738l1.274-3.922l-3.334-2.424
			c-0.545-0.396-0.774-1.094-0.565-1.738c0.21-0.643,0.805-1.076,1.479-1.076h4.122l1.272-3.919c0.198-0.611,0.793-1.022,1.48-1.022
			s1.282,0.411,1.48,1.021l1.274,3.92h4.121c0.679,0,1.274,0.434,1.48,1.079c0.208,0.638-0.019,1.337-0.566,1.735l-3.335,2.423
			l1.273,3.92c0.21,0.643-0.017,1.342-0.564,1.739C28.366,32.313,28.052,32.415,27.728,32.415z M23.475,27.653l4.07,2.956
			l-1.554-4.782l4.065-2.954h-5.025l-1.554-4.782l-1.553,4.782h-5.024l4.065,2.954l-1.555,4.782L23.475,27.653z"/>
	</g>
</g>
</svg>
