<?xml version="1.0" encoding="utf-8"?>
<!-- Generator: Adobe Illustrator 16.0.0, SVG Export Plug-In . SVG Version: 6.00 Build 0)  -->
<!DOCTYPE svg PUBLIC "-//W3C//DTD SVG 1.1//EN" "http://www.w3.org/Graphics/SVG/1.1/DTD/svg11.dtd">
<svg version="1.1"
	 id="svg11300" inkscape:output_extension="org.inkscape.output.svg.inkscape" sodipodi:docname="view-refresh.svg" sodipodi:docbase="/home/jimmac/src/cvs/tango-icon-theme/scalable/actions" inkscape:version="0.46" sodipodi:version="0.32" xmlns:dc="http://purl.org/dc/elements/1.1/" xmlns:cc="http://creativecommons.org/ns#" xmlns:rdf="http://www.w3.org/1999/02/22-rdf-syntax-ns#" xmlns:svg="http://www.w3.org/2000/svg" xmlns:sodipodi="http://sodipodi.sourceforge.net/DTD/sodipodi-0.dtd" xmlns:inkscape="http://www.inkscape.org/namespaces/inkscape" inkscape:export-ydpi="90.000000" inkscape:export-xdpi="90.000000" inkscape:export-filename="/home/jimmac/Desktop/wi-fi.png"
	 xmlns="http://www.w3.org/2000/svg" xmlns:xlink="http://www.w3.org/1999/xlink" x="0px" y="0px" width="48px" height="48px"
	 viewBox="0 0 48 48" enable-background="new 0 0 48 48" xml:space="preserve">
<path fill="#3498DB" stroke="#3498DB" stroke-width="0.5" stroke-miterlimit="10" d="M41.287,25.914
	c-0.43,0-0.778,0.348-0.778,0.778c0,9.03-7.347,16.379-16.379,16.379c-9.031,0-16.379-7.348-16.379-16.379
	c0-8.769,6.932-15.929,15.601-16.34v4.667c0,0.256,0.125,0.495,0.336,0.64c0.131,0.091,0.286,0.138,0.441,0.138
	c0.093,0,0.186-0.017,0.275-0.05l14.52-5.484c0.303-0.114,0.504-0.404,0.504-0.728c0-0.323-0.202-0.613-0.504-0.728l-14.52-5.485
	c-0.24-0.09-0.508-0.058-0.717,0.088c-0.211,0.146-0.336,0.384-0.336,0.64v4.727C13.823,9.187,6.196,17.064,6.196,26.692
	c0,9.889,8.045,17.934,17.934,17.934c9.89,0,17.935-8.045,17.935-17.934C42.064,26.262,41.717,25.914,41.287,25.914z M24.908,5.176
	l11.541,4.359l-11.541,4.359V5.176z"/>
</svg>
