<?xml version="1.0" encoding="utf-8"?>
<!-- Generator: Adobe Illustrator 16.0.0, SVG Export Plug-In . SVG Version: 6.00 Build 0)  -->
<!DOCTYPE svg PUBLIC "-//W3C//DTD SVG 1.1//EN" "http://www.w3.org/Graphics/SVG/1.1/DTD/svg11.dtd">
<svg version="1.1"
	 id="svg0" sodipodi:docname="tryton-unstar.svg" inkscape:version="0.48.2 r9819" xmlns:dc="http://purl.org/dc/elements/1.1/" xmlns:cc="http://creativecommons.org/ns#" xmlns:rdf="http://www.w3.org/1999/02/22-rdf-syntax-ns#" xmlns:svg="http://www.w3.org/2000/svg" xmlns:sodipodi="http://sodipodi.sourceforge.net/DTD/sodipodi-0.dtd" xmlns:inkscape="http://www.inkscape.org/namespaces/inkscape"
	 xmlns="http://www.w3.org/2000/svg" xmlns:xlink="http://www.w3.org/1999/xlink" x="0px" y="0px" width="48px" height="48px"
	 viewBox="0 0 48 48" enable-background="new 0 0 48 48" xml:space="preserve">
<path fill="#96E0FF" d="M24.539,2.949C24.444,2.755,24.237,2.636,24,2.636c-0.236,0-0.442,0.12-0.537,0.313l-6.61,13.395
	L2.069,18.492c-0.227,0.032-0.413,0.189-0.484,0.407c-0.071,0.218-0.013,0.455,0.151,0.614l10.696,10.426L9.908,44.664
	c-0.039,0.226,0.053,0.45,0.238,0.585c0.103,0.076,0.227,0.115,0.354,0.115c0.097,0,0.193-0.024,0.279-0.069L24,38.345l13.222,6.95
	c0.198,0.104,0.45,0.086,0.632-0.046c0.186-0.135,0.277-0.359,0.238-0.585l-2.523-14.725l10.695-10.426
	c0.165-0.159,0.223-0.396,0.151-0.614c-0.071-0.218-0.257-0.375-0.483-0.407l-14.783-2.149L24.539,2.949z M34.504,29.301
	c-0.141,0.138-0.205,0.336-0.171,0.531l2.371,13.837l-12.425-6.532c-0.085-0.045-0.182-0.069-0.279-0.069
	c-0.097,0-0.193,0.024-0.279,0.069L11.296,43.67l2.372-13.838c0.034-0.195-0.031-0.392-0.172-0.53L3.444,19.503l13.893-2.019
	c0.195-0.028,0.363-0.151,0.451-0.328L24,4.567l6.212,12.589c0.088,0.177,0.258,0.299,0.453,0.328l13.892,2.019L34.504,29.301z"/>
</svg>
