<?xml version="1.0" encoding="utf-8"?>
<!-- Generator: Adobe Illustrator 16.0.0, SVG Export Plug-In . SVG Version: 6.00 Build 0)  -->
<!DOCTYPE svg PUBLIC "-//W3C//DTD SVG 1.1//EN" "http://www.w3.org/Graphics/SVG/1.1/DTD/svg11.dtd">
<svg version="1.1"
	 id="svg11300" inkscape:output_extension="org.inkscape.output.svg.inkscape" sodipodi:docname="system-log-out.svg" sodipodi:docbase="/home/jimmac/src/cvs/tango-icon-theme/scalable/actions" inkscape:version="0.46" sodipodi:version="0.32" xmlns:dc="http://purl.org/dc/elements/1.1/" xmlns:cc="http://creativecommons.org/ns#" xmlns:rdf="http://www.w3.org/1999/02/22-rdf-syntax-ns#" xmlns:svg="http://www.w3.org/2000/svg" xmlns:sodipodi="http://sodipodi.sourceforge.net/DTD/sodipodi-0.dtd" xmlns:inkscape="http://www.inkscape.org/namespaces/inkscape" inkscape:export-ydpi="90.000000" inkscape:export-xdpi="90.000000" inkscape:export-filename="/home/jimmac/Desktop/wi-fi.png" sodipodi:modified="true"
	 xmlns="http://www.w3.org/2000/svg" xmlns:xlink="http://www.w3.org/1999/xlink" x="0px" y="0px" width="48px" height="48px"
	 viewBox="0 0 48 48" enable-background="new 0 0 48 48" xml:space="preserve">
<g>
	<g>
		<path fill="#3498DB" d="M28.739,10.25v3.613c6.308,1.922,10.91,7.789,10.91,14.716c0,8.483-6.9,15.385-15.384,15.385
			S8.881,37.063,8.881,28.579c0-6.927,4.603-12.794,10.91-14.716V10.25c-8.259,2.017-14.413,9.46-14.413,18.33
			c0,10.415,8.473,18.89,18.888,18.89s18.889-8.475,18.889-18.89C43.154,19.709,36.998,12.267,28.739,10.25z"/>
	</g>
	<g>
		<path fill="#3498DB" d="M24.267,22.827c-1.161,0-2.104-0.943-2.104-2.105V2.496c0-1.162,0.943-2.105,2.104-2.105
			c1.162,0,2.104,0.943,2.104,2.105v18.226C26.371,21.884,25.429,22.827,24.267,22.827z"/>
	</g>
</g>
</svg>
