<?xml version="1.0" encoding="utf-8"?>
<!-- Generator: Adobe Illustrator 16.0.0, SVG Export Plug-In . SVG Version: 6.00 Build 0)  -->
<!DOCTYPE svg PUBLIC "-//W3C//DTD SVG 1.1//EN" "http://www.w3.org/Graphics/SVG/1.1/DTD/svg11.dtd">
<svg version="1.1"
	 id="svg249" xmlns:dc="http://purl.org/dc/elements/1.1/" xmlns:cc="http://creativecommons.org/ns#" xmlns:rdf="http://www.w3.org/1999/02/22-rdf-syntax-ns#" xmlns:svg="http://www.w3.org/2000/svg" xmlns:sodipodi="http://sodipodi.sourceforge.net/DTD/sodipodi-0.dtd" xmlns:inkscape="http://www.inkscape.org/namespaces/inkscape" inkscape:export-filename="/home/garrett/edit-find-replace-16.png" inkscape:export-xdpi="30" inkscape:export-ydpi="30" sodipodi:version="0.32" inkscape:version="0.46" sodipodi:docbase="/home/jimmac/src/cvs/tango-icon-theme/scalable/actions" sodipodi:docname="edit-find-replace.svg" inkscape:output_extension="org.inkscape.output.svg.inkscape"
	 xmlns="http://www.w3.org/2000/svg" xmlns:xlink="http://www.w3.org/1999/xlink" x="0px" y="0px" width="48px" height="48px"
	 viewBox="0 0 48 48" enable-background="new 0 0 48 48" xml:space="preserve">
<path fill="#3498DB" d="M21.423,10.97c0-0.369,0.146-0.717,0.406-0.978l7.381-7.38c0.521-0.522,1.432-0.522,1.954,0
	c0.539,0.539,0.539,1.417,0,1.956l-5.02,5.02h7.288c6.154,0,11.161,5.006,11.161,11.16c0,5.809-5.823,10.411-9.85,10.793
	c-0.56,0.002-1.241-0.475-1.075-1.578c0.202-0.715,1.607-1.033,1.693-1.053c3.7-0.875,6.466-4.197,6.466-8.163
	c0-4.629-3.766-8.395-8.396-8.395h-7.288l5.02,5.02c0.539,0.539,0.539,1.416,0,1.955c-0.523,0.523-1.433,0.522-1.954,0l-7.381-7.38
	C21.568,11.687,21.423,11.34,21.423,10.97z M21.608,31.488h-3.909l4.157,4.158h-7.289c-4.629,0-8.396-3.768-8.396-8.395
	c0-1.357,0.332-2.632,0.909-3.763c-0.094-0.242-0.183-0.484-0.26-0.724c-0.254-0.792-0.392-1.611-0.469-2.441
	c-1.715,1.863-2.946,4.264-2.946,6.928c0,6.152,5.006,11.16,11.161,11.16h7.288l-5.02,5.02c-0.538,0.539-0.538,1.416,0,1.955
	c0.522,0.523,1.434,0.523,1.956,0l7.38-7.381c0.262-0.26,0.405-0.607,0.405-0.977s-0.144-0.717-0.405-0.979L21.608,31.488z
	 M27.91,25.757c1.011-1.371,1.655-2.925,1.946-4.532c-1.176-0.927-2.248-1.997-3.192-3.135c0.365,2.337-0.334,4.809-2.132,6.605
	c-2.988,2.988-7.852,2.988-10.84,0c-2.989-2.989-2.989-7.852,0-10.84c1.76-1.761,4.167-2.456,6.461-2.139
	c0.149-1.196,0.53-2.346,1.486-3.003c-3.355-0.875-7.699,0.261-10.264,2.825c-4.266,4.266-4.266,11.207,0,15.473
	c3.871,3.871,9.939,4.217,14.218,1.061L39.341,41.82c0.64,0.639,1.677,0.639,2.316,0c0.64-0.641,0.64-1.678,0-2.316L27.91,25.757z"
	/>
</svg>
