<?xml version="1.0" encoding="utf-8"?>
<!-- Generator: Adobe Illustrator 16.0.0, SVG Export Plug-In . SVG Version: 6.00 Build 0)  -->
<!DOCTYPE svg PUBLIC "-//W3C//DTD SVG 1.1//EN" "http://www.w3.org/Graphics/SVG/1.1/DTD/svg11.dtd">
<svg version="1.1"
	 id="svg2589" xmlns:dc="http://purl.org/dc/elements/1.1/" xmlns:cc="http://creativecommons.org/ns#" xmlns:rdf="http://www.w3.org/1999/02/22-rdf-syntax-ns#" xmlns:svg="http://www.w3.org/2000/svg" xmlns:sodipodi="http://sodipodi.sourceforge.net/DTD/sodipodi-0.dtd" xmlns:inkscape="http://www.inkscape.org/namespaces/inkscape" sodipodi:version="0.32" inkscape:version="0.48.0 r9654" sodipodi:docname="tryton-icon.svg" inkscape:output_extension="org.inkscape.output.svg.inkscape"
	 xmlns="http://www.w3.org/2000/svg" xmlns:xlink="http://www.w3.org/1999/xlink" x="0px" y="0px" width="256px" height="256px"
	 viewBox="0 0 256 256" enable-background="new 0 0 256 256" xml:space="preserve">
<rect width="256" height="256"/>
<path fill="#FFFFFF" d="M40.317,57.473c-1.526-3.504-0.385-10.792,8.479-12.719c8.865-1.928,19.271,4.239,20.429,12.719
	c1.156,8.479-1.542,17.344,0,21.199c1.542,3.855,19.271,43.554,33.532,54.346c14.261,10.793,20.427,4.24,22.354,0
	c1.929-4.239,10.408-53.96,8.48-67.836c-1.926-13.876-6.49-10.14-5.41-19.005c1.08-8.865,8.88-9.902,15.433-7.59
	c6.551,2.312,14.26,11.948,13.104,20.043c-1.156,8.093-5.781,6.938-6.168,11.563c-0.385,4.625-5.781,59.868-0.77,76.765
	c5.01,16.896,22.74,4.947,22.74,4.947s28.135-20.043,30.834-29.679c2.699-9.635,4.779-15.591,7.246-16.947
	c2.725-1.496,14.572-6.936,18.934,7.922c4.363,14.858-5.676,17.847-7.877,19.229c-2.203,1.382-8.965,0.646-35.014,45.71
	s-30.041,39.552-45.824,40.313c-15.783,0.759-90.131-23.198-95.645-24.528c-5.514-1.332-9.126-1.901-12.359-3.993
	c-3.234-2.095-7.797-7.417-7.417-15.404c0.38-7.986,8.223-11.313,14.776-8.912c4.789,1.754,10.83,10.264,12.732,11.786
	c1.901,1.522,17.215,10.271,27.632,8.242c9.756-1.901,9.51-16.819,9.13-21.384c-0.379-4.564-1.14-19.396-13.31-44.114
	C64.19,95.427,46.163,70.892,40.317,57.473z"/>
</svg>
