<?xml version="1.0" encoding="utf-8"?>
<!-- Generator: Adobe Illustrator 16.0.0, SVG Export Plug-In . SVG Version: 6.00 Build 0)  -->
<!DOCTYPE svg PUBLIC "-//W3C//DTD SVG 1.1//EN" "http://www.w3.org/Graphics/SVG/1.1/DTD/svg11.dtd">
<svg version="1.1"
	 id="svg2913" inkscape:output_extension="org.inkscape.output.svg.inkscape" sodipodi:docname="document-save.svg" sodipodi:docbase="/home/jimmac/src/cvs/tango-icon-theme/scalable/actions" inkscape:version="0.46" sodipodi:version="0.32" xmlns:dc="http://purl.org/dc/elements/1.1/" xmlns:cc="http://creativecommons.org/ns#" xmlns:rdf="http://www.w3.org/1999/02/22-rdf-syntax-ns#" xmlns:svg="http://www.w3.org/2000/svg" xmlns:sodipodi="http://sodipodi.sourceforge.net/DTD/sodipodi-0.dtd" xmlns:inkscape="http://www.inkscape.org/namespaces/inkscape"
	 xmlns="http://www.w3.org/2000/svg" xmlns:xlink="http://www.w3.org/1999/xlink" x="0px" y="0px" width="48px" height="48px"
	 viewBox="0 0 48 48" enable-background="new 0 0 48 48" xml:space="preserve">
<g>
	<path fill="#3498DB" d="M17.294,25.703c-0.29,0.289-0.29,0.758,0,1.05l6.559,6.558c0.069,0.07,0.151,0.123,0.24,0.161
		c0.092,0.038,0.188,0.057,0.286,0.057c0.097,0,0.193-0.019,0.284-0.057s0.173-0.091,0.24-0.161l6.56-6.558
		c0.291-0.292,0.291-0.762,0-1.05c-0.291-0.291-0.759-0.291-1.05,0l-5.292,5.291V4.572c0-0.41-0.332-0.743-0.742-0.743
		c-0.412,0-0.743,0.333-0.743,0.743v26.422l-5.291-5.291C18.054,25.412,17.585,25.412,17.294,25.703z"/>
	<path fill="#3498DB" d="M39.475,12.491H31.68c-0.41,0-0.743,0.333-0.743,0.743c0,0.409,0.333,0.742,0.743,0.742h7.053v28.71h-28.71
		v-28.71h7.273c0.41,0,0.743-0.333,0.743-0.742c0-0.41-0.333-0.743-0.743-0.743H9.28c-0.41,0-0.743,0.333-0.743,0.743V43.43
		c0,0.41,0.333,0.742,0.743,0.742h30.195c0.41,0,0.743-0.332,0.743-0.742V13.234C40.218,12.824,39.885,12.491,39.475,12.491z"/>
</g>
</svg>
