<?xml version="1.0" encoding="utf-8"?>
<!-- Generator: Adobe Illustrator 16.0.0, SVG Export Plug-In . SVG Version: 6.00 Build 0)  -->
<!DOCTYPE svg PUBLIC "-//W3C//DTD SVG 1.1//EN" "http://www.w3.org/Graphics/SVG/1.1/DTD/svg11.dtd">
<svg version="1.1"
	 id="svg2" inkscape:output_extension="org.inkscape.output.svg.inkscape" sodipodi:docname="go-home.svg" sodipodi:docbase="/home/jimmac/src/cvs/tango-icon-theme/scalable/actions" inkscape:version="0.46" sodipodi:version="0.32" xmlns:dc="http://purl.org/dc/elements/1.1/" xmlns:cc="http://creativecommons.org/ns#" xmlns:rdf="http://www.w3.org/1999/02/22-rdf-syntax-ns#" xmlns:svg="http://www.w3.org/2000/svg" xmlns:sodipodi="http://sodipodi.sourceforge.net/DTD/sodipodi-0.dtd" xmlns:inkscape="http://www.inkscape.org/namespaces/inkscape" inkscape:export-ydpi="90.000000" inkscape:export-xdpi="90.000000" inkscape:export-filename="/home/tigert/My Downloads/go-home.png"
	 xmlns="http://www.w3.org/2000/svg" xmlns:xlink="http://www.w3.org/1999/xlink" x="0px" y="0px" width="48px" height="48px"
	 viewBox="0 0 48 48" enable-background="new 0 0 48 48" xml:space="preserve">
<g>
	<path fill="#3498DB" d="M38.198,43.354H9.833c-0.458,0-0.829-0.369-0.829-0.828V27.08l-5.775-0.012
		c-0.335-0.002-0.637-0.203-0.765-0.514c-0.127-0.309-0.056-0.664,0.181-0.9L23.41,4.889c0.189-0.188,0.459-0.272,0.718-0.232
		c0.246,0.04,0.46,0.188,0.585,0.402l4.834,4.835V8.349c0-0.457,0.37-0.829,0.829-0.829h4.867c0.459,0,0.828,0.372,0.828,0.829
		v8.068l9.315,9.317c0.236,0.236,0.309,0.594,0.18,0.904c-0.128,0.309-0.431,0.51-0.766,0.51c-0.001,0-0.001,0-0.002,0l-5.772-0.012
		v15.389C39.027,42.984,38.656,43.354,38.198,43.354z M10.662,41.697H37.37V26.307c0-0.221,0.088-0.432,0.244-0.588
		c0.155-0.152,0.364-0.24,0.584-0.24c0.001,0,0.001,0,0.002,0l4.598,0.008l-8.14-8.14c-0.156-0.155-0.243-0.366-0.243-0.586V9.177
		h-3.211v2.716c0,0.334-0.2,0.637-0.511,0.765c-0.31,0.129-0.665,0.058-0.903-0.18l-5.813-5.813l-18.75,18.75l4.608,0.008
		c0.458,0,0.827,0.371,0.827,0.83V41.697z"/>
</g>
</svg>
