<?xml version="1.0" encoding="utf-8"?>
<!-- Generator: Adobe Illustrator 16.0.0, SVG Export Plug-In . SVG Version: 6.00 Build 0)  -->
<!DOCTYPE svg PUBLIC "-//W3C//DTD SVG 1.1//EN" "http://www.w3.org/Graphics/SVG/1.1/DTD/svg11.dtd">
<svg version="1.1"
	 id="svg79606" inkscape:output_extension="org.inkscape.output.svg.inkscape" sodipodi:docname="mail-attachment.svg" sodipodi:docbase="/home/garrett/Source/tango-icon-theme/scalable/status" inkscape:version="0.46" sodipodi:version="0.32" xmlns:dc="http://purl.org/dc/elements/1.1/" xmlns:cc="http://creativecommons.org/ns#" xmlns:rdf="http://www.w3.org/1999/02/22-rdf-syntax-ns#" xmlns:svg="http://www.w3.org/2000/svg" xmlns:sodipodi="http://sodipodi.sourceforge.net/DTD/sodipodi-0.dtd" xmlns:inkscape="http://www.inkscape.org/namespaces/inkscape"
	 xmlns="http://www.w3.org/2000/svg" xmlns:xlink="http://www.w3.org/1999/xlink" x="0px" y="0px" width="48px" height="48px"
	 viewBox="0 0 48 48" enable-background="new 0 0 48 48" xml:space="preserve">
<g>
	<path fill="#3498DB" d="M23.999,43.521c-4.682,0-8.492-3.81-8.492-8.491V10.226c0-0.256,0.071-0.497,0.194-0.701
		c0.715-2.893,3.333-5.045,6.444-5.045c3.659,0,6.639,2.978,6.639,6.638v19.079c0,2.639-2.146,4.785-4.785,4.785
		s-4.785-2.146-4.785-4.785V15.314c0-0.755,0.613-1.368,1.368-1.368c0.755,0,1.369,0.613,1.369,1.368v14.882
		c0,1.13,0.919,2.049,2.048,2.049c1.129,0,2.048-0.919,2.048-2.049V11.118c0-2.151-1.75-3.901-3.901-3.901
		c-2.151,0-3.902,1.751-3.902,3.901V35.03c0,3.173,2.582,5.755,5.755,5.755c3.175,0,5.756-2.582,5.756-5.755V15.313
		c0-0.755,0.613-1.368,1.368-1.368c0.756,0,1.368,0.613,1.368,1.368V35.03C32.491,39.712,28.683,43.521,23.999,43.521z"/>
</g>
</svg>
