<?xml version="1.0" encoding="utf-8"?>
<!-- Generator: Adobe Illustrator 16.0.0, SVG Export Plug-In . SVG Version: 6.00 Build 0)  -->
<!DOCTYPE svg PUBLIC "-//W3C//DTD SVG 1.1//EN" "http://www.w3.org/Graphics/SVG/1.1/DTD/svg11.dtd">
<svg version="1.1"
	 id="svg249" inkscape:output_extension="org.inkscape.output.svg.inkscape" sodipodi:docname="edit-find.svg" sodipodi:docbase="/home/jimmac/src/cvs/tango-icon-theme/scalable/actions" inkscape:version="0.46" sodipodi:version="0.32" xmlns:dc="http://purl.org/dc/elements/1.1/" xmlns:cc="http://creativecommons.org/ns#" xmlns:rdf="http://www.w3.org/1999/02/22-rdf-syntax-ns#" xmlns:svg="http://www.w3.org/2000/svg" xmlns:sodipodi="http://sodipodi.sourceforge.net/DTD/sodipodi-0.dtd" xmlns:inkscape="http://www.inkscape.org/namespaces/inkscape" inkscape:export-ydpi="90.000000" inkscape:export-xdpi="90.000000" inkscape:export-filename="/home/steven/edit-find-48.png"
	 xmlns="http://www.w3.org/2000/svg" xmlns:xlink="http://www.w3.org/1999/xlink" x="0px" y="0px" width="48px" height="48px"
	 viewBox="0 0 48 48" enable-background="new 0 0 48 48" xml:space="preserve">
<g>
	<polygon fill="none" points="25.305,5.452 25.305,15.602 35.455,15.602 	"/>
	<path fill="none" d="M33.885,36.688c-0.082-0.082-0.19-0.127-0.307-0.127c-0.117,0-0.223,0.044-0.305,0.126
		c-0.083,0.082-0.128,0.191-0.128,0.307c0,0.116,0.045,0.226,0.127,0.308l3.214,3.213v-1.225L33.885,36.688z"/>
	<path fill="none" d="M26.171,21.563c-4.59,0-8.324,3.734-8.324,8.324c0,4.589,3.732,8.322,8.32,8.322
		c2.292,0,4.429-0.918,6.02-2.586l0.068-0.072c1.442-1.549,2.239-3.561,2.239-5.664C34.494,25.298,30.761,21.563,26.171,21.563z"/>
	<path fill="none" d="M31.868,37.854c-1.677,1.208-3.64,1.845-5.697,1.845c-5.409,0-9.81-4.4-9.81-9.81
		c0-5.41,4.401-9.811,9.81-9.811s9.811,4.401,9.811,9.811c0,1.917-0.557,3.766-1.612,5.368c0.215,0.093,0.407,0.222,0.566,0.381
		l1.551,1.551V17.061h-11.91c-0.404,0-0.73-0.327-0.73-0.73V4.419H7.785v39.159h28.701v-0.963l-4.265-4.264
		C32.077,38.205,31.959,38.039,31.868,37.854z"/>
	<path fill="none" d="M39.647,43.674c0.154,0.152,0.46,0.154,0.612,0c0.081-0.081,0.126-0.189,0.126-0.306
		c0-0.117-0.044-0.223-0.126-0.305l-2.314-2.314v1.224L39.647,43.674z"/>
	<path fill="#3498DB" d="M36.486,43.578H7.785V4.419h16.061v11.911c0,0.403,0.326,0.73,0.73,0.73h11.91v20.128l1.459,1.458V16.331
		c0.002-0.016-0.007-0.03-0.008-0.045c-0.005-0.065-0.017-0.128-0.037-0.189c-0.009-0.023-0.015-0.045-0.023-0.068
		c-0.036-0.077-0.081-0.151-0.145-0.214L25.092,3.173c-0.063-0.063-0.137-0.107-0.213-0.142c-0.023-0.011-0.047-0.017-0.071-0.025
		c-0.06-0.02-0.121-0.032-0.185-0.036c-0.018-0.002-0.031-0.009-0.049-0.009H7.056c-0.403,0-0.729,0.327-0.729,0.729v40.618
		c0,0.404,0.326,0.73,0.729,0.73h30.16c0.403,0,0.729-0.326,0.729-0.73v-0.235l-1.459-1.458V43.578z M25.305,5.452l10.15,10.15
		h-10.15V5.452z"/>
	<path fill="#3498DB" d="M33.146,36.993c0-0.115,0.045-0.225,0.128-0.307c0.082-0.082,0.188-0.126,0.305-0.126
		c0.116,0,0.225,0.045,0.307,0.127l2.602,2.602v-2.101l-1.551-1.551c-0.159-0.159-0.352-0.288-0.566-0.381
		c1.056-1.603,1.612-3.451,1.612-5.368c0-5.41-4.401-9.811-9.811-9.811s-9.81,4.401-9.81,9.811c0,5.409,4.401,9.81,9.81,9.81
		c2.058,0,4.021-0.637,5.697-1.845c0.091,0.186,0.209,0.352,0.354,0.498l4.265,4.264v-2.102l-3.214-3.213
		C33.19,37.219,33.146,37.109,33.146,36.993z M32.187,35.624c-1.591,1.668-3.728,2.586-6.02,2.586c-4.588,0-8.32-3.733-8.32-8.322
		c0-4.59,3.734-8.324,8.324-8.324s8.323,3.734,8.323,8.324c0,2.104-0.797,4.115-2.239,5.664L32.187,35.624z"/>
	<path fill="#3498DB" d="M41.311,42.012l-3.365-3.365v2.103l2.314,2.314c0.082,0.082,0.126,0.188,0.126,0.305
		c0,0.116-0.045,0.225-0.126,0.306c-0.152,0.154-0.458,0.152-0.612,0l-1.702-1.701v2.101l0.651,0.651
		c0.363,0.363,0.846,0.563,1.357,0.563c0.514,0,0.995-0.2,1.355-0.563c0.364-0.361,0.563-0.844,0.563-1.358
		C41.872,42.855,41.673,42.374,41.311,42.012z"/>
	<polygon fill="#3498DB" points="36.486,39.289 37.945,40.749 37.945,38.646 36.486,37.188 	"/>
	<polygon fill="#3498DB" points="36.486,40.514 36.486,42.615 37.945,44.073 37.945,41.973 	"/>
</g>
</svg>
