<?xml version="1.0" encoding="utf-8"?>
<!-- Generator: Adobe Illustrator 16.0.0, SVG Export Plug-In . SVG Version: 6.00 Build 0)  -->
<!DOCTYPE svg PUBLIC "-//W3C//DTD SVG 1.1//EN" "http://www.w3.org/Graphics/SVG/1.1/DTD/svg11.dtd">
<svg version="1.1"
	 id="svg249" xmlns:dc="http://purl.org/dc/elements/1.1/" xmlns:cc="http://creativecommons.org/ns#" xmlns:rdf="http://www.w3.org/1999/02/22-rdf-syntax-ns#" xmlns:svg="http://www.w3.org/2000/svg" xmlns:sodipodi="http://sodipodi.sourceforge.net/DTD/sodipodi-0.dtd" xmlns:inkscape="http://www.inkscape.org/namespaces/inkscape" inkscape:output_extension="org.inkscape.output.svg.inkscape" sodipodi:version="0.32" inkscape:version="0.46" sodipodi:docbase="/home/jimmac/src/cvs/tango-icon-theme/scalable/actions" sodipodi:docname="document-properties.svg" inkscape:export-filename="/home/jimmac/gfx/novell/pdes/trunk/docs/BIGmime-text.png" inkscape:export-xdpi="240.00000" inkscape:export-ydpi="240.00000"
	 xmlns="http://www.w3.org/2000/svg" xmlns:xlink="http://www.w3.org/1999/xlink" x="0px" y="0px" width="48px" height="48px"
	 viewBox="0 0 48 48" enable-background="new 0 0 48 48" xml:space="preserve">
<path fill="#3498DB" d="M42.073,15.782c-0.007-0.069-0.021-0.136-0.04-0.201c-0.011-0.025-0.016-0.05-0.024-0.073
	c-0.038-0.083-0.088-0.161-0.156-0.229L28.389,1.816c-0.067-0.067-0.146-0.116-0.228-0.152c-0.024-0.013-0.05-0.019-0.075-0.027
	C28.022,1.615,27.959,1.604,27.89,1.6c-0.021-0.003-0.034-0.01-0.052-0.01h-9.38h-1.555H9.178c-0.432,0-0.779,0.348-0.779,0.776
	v43.268c0,0.43,0.348,0.776,0.779,0.776h32.125c0.431,0,0.778-0.347,0.778-0.776v-7.726v-1.554V15.831
	C42.082,15.813,42.074,15.797,42.073,15.782z M28.616,4.243l10.812,10.812H28.616V4.243z M40.526,37.908v6.946H9.954V3.142h6.949
	h1.555h8.604v12.688c0,0.431,0.349,0.778,0.778,0.778h12.687v19.746V37.908L40.526,37.908z"/>
<path fill="#3498DB" d="M14.079,26.03c1.016,1.019,2.372,1.577,3.809,1.577c0.646,0,1.275-0.112,1.875-0.334l4.79,4.791l1.151,1.152
	l3.611,3.611c-0.734,1.978-0.265,4.176,1.243,5.684c1.017,1.016,2.369,1.577,3.808,1.577c0.772,0,1.551-0.17,2.251-0.49
	c0.145-0.066,0.25-0.2,0.278-0.357c0.029-0.156-0.022-0.319-0.136-0.433l-1.953-1.953l0.123-1.604l1.604-0.124l1.954,1.954
	c0.114,0.112,0.275,0.162,0.432,0.135c0.157-0.028,0.291-0.132,0.358-0.278c0.932-2.04,0.494-4.476-1.088-6.06
	c-1.018-1.017-2.371-1.577-3.81-1.577c-0.646,0-1.274,0.112-1.875,0.335l-4.07-4.071l0,0l-1.742-1.745l-3.737-3.737
	c0.733-1.979,0.262-4.178-1.244-5.684c-1.017-1.017-2.369-1.577-3.809-1.577c-0.771,0-1.55,0.169-2.25,0.489
	c-0.146,0.066-0.252,0.2-0.277,0.357c-0.03,0.157,0.021,0.318,0.133,0.432l1.955,1.953l-0.124,1.604l-1.603,0.124l-1.955-1.953
	c-0.112-0.114-0.275-0.163-0.431-0.136c-0.158,0.029-0.293,0.132-0.359,0.278C12.057,22.012,12.495,24.447,14.079,26.03z
	 M13.635,21.063l1.568,1.57c0.101,0.101,0.24,0.151,0.382,0.141l2.246-0.173c0.24-0.018,0.433-0.209,0.451-0.45l0.172-2.245
	c0.011-0.143-0.039-0.282-0.14-0.383l-1.57-1.57c0.377-0.101,0.769-0.154,1.158-0.154c1.179,0,2.287,0.458,3.12,1.291
	c1.298,1.299,1.657,3.228,0.913,4.913c-0.083,0.183-0.043,0.399,0.101,0.543l4.708,4.708l1.729,1.729l0,0l3.572,3.572
	c0.143,0.144,0.357,0.182,0.543,0.101c0.565-0.251,1.17-0.376,1.792-0.376c1.18,0,2.287,0.457,3.119,1.289
	c1.124,1.124,1.542,2.771,1.137,4.277l-1.569-1.569c-0.101-0.102-0.241-0.152-0.384-0.142l-2.245,0.173
	c-0.24,0.019-0.431,0.209-0.45,0.448l-0.173,2.247c-0.011,0.142,0.042,0.28,0.143,0.382l1.569,1.569
	c-0.378,0.103-0.771,0.155-1.16,0.155c-1.179,0-2.286-0.458-3.117-1.292c-1.301-1.299-1.66-3.228-0.913-4.911
	c0.08-0.184,0.041-0.399-0.103-0.543l-4.3-4.299l0,0l-0.69-0.69l0,0l-5.019-5.019c-0.143-0.145-0.359-0.185-0.542-0.102
	c-0.567,0.25-1.172,0.378-1.794,0.378c-1.179,0-2.285-0.46-3.118-1.292C13.646,24.217,13.227,22.57,13.635,21.063z"/>
</svg>
