<?xml version="1.0" encoding="utf-8"?>
<!-- Generator: Adobe Illustrator 16.0.0, SVG Export Plug-In . SVG Version: 6.00 Build 0)  -->
<!DOCTYPE svg PUBLIC "-//W3C//DTD SVG 1.1//EN" "http://www.w3.org/Graphics/SVG/1.1/DTD/svg11.dtd">
<svg version="1.1"
	 id="svg1306" inkscape:output_extension="org.inkscape.output.svg.inkscape" sodipodi:docname="dialog-error.svg" sodipodi:docbase="/home/garrett/Source/tango-icon-theme/scalable/status" inkscape:version="0.46" sodipodi:version="0.32" xmlns:dc="http://purl.org/dc/elements/1.1/" xmlns:cc="http://creativecommons.org/ns#" xmlns:rdf="http://www.w3.org/1999/02/22-rdf-syntax-ns#" xmlns:svg="http://www.w3.org/2000/svg" xmlns:sodipodi="http://sodipodi.sourceforge.net/DTD/sodipodi-0.dtd" xmlns:inkscape="http://www.inkscape.org/namespaces/inkscape"
	 xmlns="http://www.w3.org/2000/svg" xmlns:xlink="http://www.w3.org/1999/xlink" x="0px" y="0px" width="48px" height="48px"
	 viewBox="0 0 48 48" enable-background="new 0 0 48 48" xml:space="preserve">
<g>
	<path fill="#FF0000" stroke="#FF0000" stroke-width="0.5" stroke-miterlimit="10" d="M24,45.398
		C12.201,45.398,2.602,35.801,2.602,24c0-11.799,9.6-21.398,21.398-21.398c11.8,0,21.398,9.6,21.398,21.398
		C45.398,35.801,35.8,45.398,24,45.398z M24,4.248C13.109,4.248,4.248,13.109,4.248,24c0,10.89,8.861,19.752,19.752,19.752
		c10.891,0,19.753-8.862,19.753-19.752C43.753,13.109,34.891,4.248,24,4.248z"/>
</g>
<g>
	
		<rect x="13.712" y="23.178" fill="#FF0000" stroke="#FF0000" stroke-width="0.5" stroke-miterlimit="10" width="20.575" height="1.646"/>
</g>
</svg>
